<?xml version="1.0" encoding="utf-8"?>

<!DOCTYPE svg PUBLIC "-//W3C//DTD SVG 1.1//EN" "http://www.w3.org/Graphics/SVG/1.1/DTD/svg11.dtd">
<svg version="1.1" id="Layer_1" xmlns="http://www.w3.org/2000/svg" xmlns:xlink="http://www.w3.org/1999/xlink" x="0px" y="0px"
	 viewBox="479.9531 -0.0469 1600.0938 1600.0938" enable-background="new 479.9531 -0.0469 1600.0938 1600.0938"
	 xml:space="preserve">
<g>
	<path fill="#EEA392" stroke="#EEA392" stroke-width="0.5" d="M1413.9583,118.15c4.3667-1.4583,9.4501-1.3333,13.4917,1.0333
		c-4.125,2.05-9.725,0.7167-12.7583,4.7333c3.8417-0.0333,7.6749-0.25,11.5249-0.4c-1.7333,2.5083-4.0416,4.5-6.5667,6.1583
		c-3.225,2.1333-5.6166,5.2167-7.7,8.425c-8.4166,0.5417-16.8833,0.4083-25.275-0.4917c-0.2667,0.9583-0.5333,1.9083-0.775,2.875
		c-3.9916,0.325-8.0665,0.025-11.975,0.9333c-2.4083,2.225-1.1832,5.8583-0.9916,8.6917c-2.925,0.4167-5.8834,0.55-8.8,0.8917
		c-3.4666,0.3667-6.075,3.3667-9.625,3.3667c-6.875,0.225-13.8083-0.9417-20.6333,0.2667c-0.1-1.8-0.1833-3.5917-0.2667-5.3833
		c-4.3749,1.6333-8.7999,3.6417-13.5916,3.3417c-6.975-0.3417-13.925,0.4583-20.8917,0.7c-2.5583,0.075-4.9916,0.8583-7.3999,1.6167
		c-3.6584,1.1917-7.6833,0.6667-11.2084,2.3083c-4.7167,2.175-9.825,3.3167-14.9333,4.0917
		c-5.2084,0.8417-10.6167-1.7583-15.6583,0.4c-5.225,2.35-11.0583,1.7917-16.625,1.6917c-3.9083-0.025-7.625-1.5167-11.5167-1.6167
		c-4.1,0.3083-6.7499,3.9583-10.3666,5.4583c-2.9751,0.4333-5.9501-0.425-8.925-0.5c-4.225-0.275-8.2666,1.2917-12.45,1.5667
		c-8.6417,0.6833-17.6001-1.325-26.0001,1.5083c-7.0916,2.1083-13.7916,6.4917-21.4583,5.8167
		c-5.1667-0.45-10.3584-1.0167-15.5167-0.2083c1.875,0.7417,3.7667,1.4417,5.6667,2.1583c-5.7917-0.05-11.6085-0.3167-17.3667,0.35
		c-2.4417,0.175-4.9667,0.6667-7.3501-0.025c-1.1083-1.6083-1.7583-3.475-2.875-5.0583c-3.7333-0.775-7.5499,0.0667-11.2916,0.3167
		c-0.4-1.5083-0.7916-3.0083-1.1749-4.5083c-5.3251-0.4917-10.675-0.4083-16.0084-0.325c-15.025-0.025-30.0583,0.0583-45.0833-0.075
		c-3.4584-0.3-5.725,3.0333-9.0334,3.2583c-3.2917,0.3-6.6083,0.375-9.825,1.1333c-3.4833,0.6667-7.3917,1.5-10.675-0.2333
		c-1.0416-1.1917-1.525-2.725-2.2083-4.1167c5.8917-2.6417,12.4333-2.4417,18.725-2.9833c6.9332-0.3417,14.1499-1.4667,20.8,1.15
		c0.3916-2.0667,0.7999-4.1167,1.1917-6.175c4.6166-0.15,9.375-0.0083,13.7333-1.8c3.4-1.425,7.05-0.1167,10.5667-0.3917
		c2.775-0.75,4.9584-2.875,7.75-3.6333c2.3167-0.825,4.9667-0.875,7.075-2.2417c0.875-2.825,0.8667-5.825,1.1833-8.7417
		c4.0083-0.1333,8.025-0.25,12.0416-0.3c0.3-1.5333,0.6167-3.0667,0.9333-4.5917c0.3417,1.225,0.6918,2.4583,1.0417,3.6917
		c0.9916-0.0417,1.9916-0.0833,2.9999-0.125c-0.2999-1.0083-0.5917-2.0167-0.8833-3.025c2.4417,1.1917,4.9834,2.5583,7.8,2.3
		c4.5083-0.2667,9.0083-0.85,13.5333-0.6333c8.35,0.3583,16.6666-0.525,24.9916-0.9917c3.7584-0.1583,7.25-1.675,10.5084-3.4417
		c4.9083-2.7667,10.725-1.8833,16.1083-2.45c6.275-0.675,12.925,0.25,18.7916-2.55c4.5834-2.0417,9.4584-3.4,14.4333-4.0833
		c2.7667-0.4,5.2916,1.075,7.7916,2.0167c2.2501-1.825,5.1334-2.2167,7.9418-2.2083c7.0917-0.0833,13.975-2.4,21.1-2.125
		c5.2916,0.1833,10.575-0.175,15.8417-0.65c6.675-0.5917,13.8083,1.1,20.025-2.15c3.4584,1.5333,6.7917,3.9,10.7417,3.7583
		c6.575-0.0333,13.1583,0.05,19.7084-0.5c5.9584-0.5083,11.8833,0.675,17.8416,0.3667c2.7667,0.0333,5.7917-0.4917,8.3083,0.975
		c2.3167,1.3333,4.7167,2.9083,7.5333,2.6583c4.3,0.3333,7.4083-3.4833,11.5917-3.65c5.3251-0.325,10.6499,0.3417,15.9833,0.1167
		c4.2001,0.0667,7.275-3.7833,11.525-3.4917c7.175,0.1417,14.4584-0.5167,21.5333,1.0333c3.9501,0.85,8.0083,0.9083,12.025,0.6667
		C1412.9916,122.175,1412.3083,119.5083,1413.9583,118.15z"/>
	<path fill="#F3ACA6" stroke="#F3ACA6" stroke-width="0.5" d="M824.2583,188.55c4.6417-0.3,9.3-0.8083,13.9584-0.775
		c1.9916-0.0667,3.125,1.9333,4.0167,3.4167c1.375,2.3167-0.3,4.9583-1.8083,6.7417c-2.5667,2.9083-6.8167,2.45-10.25,3.3417
		c-4.425,0.7333-8.075,3.9833-12.5833,4.3083c-3.15-0.9667-4.05-4.7583-5.6084-7.3c-6.0333,1.075-11.6333,3.675-17.45,5.5083
		c-6.5667,2.3417-13.225,4.375-19.7833,6.7333c-5.7584,2.075-11.925,2.475-17.7833,4.1417
		c-3.9417,1.05-7.8334,2.7417-11.9917,2.5333c-7.425-0.3917-14.8667-0.5583-22.25-1.4583c-2.4667-0.15-5.15-0.6416-7.4667,0.475
		c-4.35,3.2667-5.8167,8.7667-8.575,13.2c-3.8417,4.6083-9.825,6.475-15.15,8.7667c-5.825,2.25-10.95,5.9583-16.8334,8.0583
		c-5.9417,2.2083-12.225,3.9917-17.2833,7.9833c-4.625,3.6417-9.4833,7.5167-15.5,8.3917c-5.55,0.825-10.9833,2.175-16.3583,3.775
		c-7.725,1.85-15.6083,5.3083-23.6833,3.2917c-1.825-0.3333-4.175-2.3083-3.1166-4.2917c0.9583-2.3667,2.5333-4.4084,4.0167-6.4583
		c-4.7584,1.65-9.725,0.6167-14.5833,0.3417c-5.1917-0.2917-9.6334,2.7083-14.2917,4.4666
		c-2.675,1.0667-5.5667,0.3167-8.2917-0.0417c-1.6417-4.125,0.0333-8.8333,3.2584-11.65c2.3583-0.8417,4.925-0.6167,7.3833-0.7583
		c1.9833-2.3,3.5334-6.125,7.075-6.025c5.8834,0.1333,11.6417,1.8333,17.55,1.575c5.975-0.0166,11.2833-3.1917,16.0417-6.4833
		c2.7416-1.9917,5.25-4.2667,7.8-6.4917c4.0167-3.4917,6.9917-8.0167,11.1917-11.3083c4.45-3.4917,8.8333-7.55,14.6083-8.625
		c1.325,2,2.4083,4.3083,4.375,5.775c2.525,1.5,5.5667,1.7083,8.4333,1.8333c8.5834,0.0083,17.325-0.775,25.45-3.6417
		c4.475-4.625,7.15-11.125,12.95-14.4583c4.6917-2.475,9.9167-3.7083,14.9916-5.1333c4.6583-1.1,9.8583-2.325,14.4167-0.2083
		c1.4083,2.7417-1.6083,5.0583-2.7667,7.3083c6.4916-0.2583,13.075-0.275,19.425-1.8083c8.075-2,15.675-5.4333,23.475-8.2417
		c3.8334-1.4833,7.9333-0.3167,11.9-0.5333c8.6-0.55,17.125-1.9667,25.525-3.8833c1.3833,0.7,2.8167,2.2,4.475,1.35
		C816.8417,190.9917,820.275,188.8083,824.2583,188.55z"/>
	<path fill="#F1AF9E" stroke="#F1AF9E" stroke-width="0.5" d="M1382.1083,189.3583c5.4834-2.7917,11.6918,0.0667,17.4249-1.575
		c0.525,4.2083,0.6085,8.4583,0.3085,12.6917c-3.3,1.8667-6.2417,4.6167-9.9751,5.5417c-5.3167,0.0167-11.2832-1.2-14.4417-5.9167
		c-0.8667,1.55-1.725,3.1-2.575,4.6583c-11.1499,0.8583-22.3833-0.6-33.4917,0.9667c-2.2916,0.2417-4.5917,0.0667-6.8833,0.1667
		c-2.6833,0.025-3.85,2.9083-5.3334,4.6833c6.3083-0.7833,12.425-2.7333,18.7917-3.1667c0,1.5583-0.1833,3.175,0.2999,4.6917
		c3.1584,1.8917,7.0583,1.8,10.5834,2.5583c-3.7,2.05-8.375,3.0667-10.575,7.025c1.4667,0.2583,2.9584,0.5,4.45,0.75
		c0.3667,0.9083,0.7333,1.8167,1.1167,2.725c-6.2167,2.925-12.9,4.5917-19.5334,6.2583c-6.4,1.4917-12.4249,4.4333-19.025,5.075
		c-4.9667,0.475-9.4417,2.7417-14.0583,4.4167c-4.7166,1.875-10.4166,0.1-14.5083,3.6667c-1.5083-0.225-3.0083-0.4583-4.5083-0.6917
		c-1.4166,1.2333-2.7833,2.575-4.4417,3.475c-1.6167,0.1083-2.3334-1.7667-3.4-2.65c-6.625-0.8333-13.275,0.1083-19.7583,1.4583
		c-9.4751,2.225-19.3251-0.1083-28.8251,1.8167c-1.1917,0.6917-2.025,1.825-2.95,2.8167c-3.3501-1.975-6.9-3.6333-9.9918-6.0083
		c5.8417-1.6583,11.55-3.8833,17.6001-4.7167c5.0167-0.575,8.7917-4.4167,13.675-5.4167c7.3417-1.6167,14.575-3.7,21.8333-5.6667
		c2.8584-0.775,5.5918-1.9583,8.2167-3.3417c-8.1166,0.9083-16.0416,2.8833-23.9249,4.9583
		c-6.8667,1.3417-13.3417,4.0833-20.1251,5.75c-7.325,1.85-14.3082,4.7833-21.6,6.7417
		c-9.1416,2.1833-17.8666,6.2917-27.3667,6.7167c-4.2499,0.2583-7.6,3.2583-11.6083,4.3333c-7.4917,2.1-14.1333,6.45-21.75,8.175
		c-7.2916,1.675-14.025,5.0167-21.1499,7.225c-4.3917,1.4-8.6083,3.3833-13.1417,4.3416c-2.9916,0.6584-6.0499,1.05-8.95,2.0583
		c-3.4,1.1667-6.5083,3.0167-9.8583,4.2917c-4.1334-0.2667-8.2417-0.975-12.1584-2.3167c5.5668-0.4667,11.2001-0.475,16.6918-1.6667
		c-1.5084-1.9833-2.9751-3.9917-4.4-6.0333c-6.775-0.5667-13.5668-0.0916-20.35-0.125c-2.3168,0.0583-4.525-0.675-6.5668-1.7166
		c4.9084-2.4667,10.5084-3.2667,15.1833-6.2667c-1.4166-1.2417-2.7084-3.025-4.7583-3.0917
		c-4.0668-0.2833-8.1417-0.3416-12.2084-0.5417c-4.0166-0.5083-5.9333,4.4333-9.775,4.5334c-4.725,0.075-9.45-0.5083-14.075-1.45
		c4.0833-0.475,8.1833-0.1833,12.2666,0.175c-0.0083-2.4666,0.0583-5.325,2.2833-6.9166c2.75-2.625,6.7833-1.5667,10.1083-2.5667
		c1.3083-1.3083,2.1334-3,3.1-4.55c3.8334-0.1917,7.7334,0.0833,11.4917-0.8083c0.7666-1.6167,1.0166-3.4167,1.3251-5.1583
		c-7.7917-0.5583-15.5334,0.7417-23.3167,0.7833c-6.1001,0-12.3501,1.0083-18.275-0.95c3.9-2.3,8.5083-1.175,12.7416-2.0083
		c0.9917-1.2083,1.6167-2.6583,2.3501-4.025c4.1499-0.4333,8.6416,0.0667,12.35-2.2083c2.5416-1.6083,5.5583-1.9167,8.5-1.975
		c0.4333,0.5583,0.875,1.125,1.3251,1.7c1.0499-0.85,2.0667-1.8083,3.3167-2.3667c3.75-0.0417,7.4583,1.35,11.225,0.6083
		c5.1749-0.8833,10.4083-0.275,15.6166-0.575c6.7417-1.0083,12.8917-4.1833,19.125-6.7917c4.525-2.0417,9.7084-0.2417,14.275-2.1333
		c5.3417-2.125,10.3917-5.0083,15.9834-6.4917c5.9-1.6833,12.0833-0.8417,18.125-1.325c4.1749-0.3333,8.375-0.4,12.5583-0.7417
		c3.4666-0.1833,6.0583-2.8,9.2583-3.8c2.875-0.6167,5.8417-0.175,8.7666-0.15c5.3917,0.225,10.7084-1.1833,16.1084-0.9583
		c4.2167,0.1167,8.5,1.225,12.675,0.075c4.1416-1.1333,8.3666-1.8667,12.6333-2.3667c5.6666-0.6417,10.6833-3.7,16.3167-4.5167
		c5.0083-0.8,9.8833-2.7417,15.0333-2.4083c5.1083,0.2333,10.1917,0.8083,15.2916,1.25c0.8334,1.3333,1.675,2.6667,2.5333,4
		c3.1-1.2,6.2583-2.3833,9.6-2.675c5.2917-0.6667,10.7417-0.0417,15.9167-1.5833c4.225-1.275,8.6333-0.05,12.9417-0.5083
		c4.0833-0.4333,8.2083-0.625,12.3082-0.1417c0.6667,1.4917,1.35,2.9833,2.0417,4.475c3.2167-2.35,6.7166-4.325,10.6-5.3333
		c5.3667-1.425,9.6499-5.45,15.1666-6.4417c4.025-0.675,8.1167-0.1583,12.1583,0.0917
		C1384.7334,191.2833,1383.4083,190.325,1382.1083,189.3583z"/>
	<path fill="#F5A79F" stroke="#F5A79F" stroke-width="0.5" d="M867.725,205.1333c1.9667-2.15,5.175-2.7917,7.9833-2.525
		c3.1666,0.2833,5.5583,2.575,7.7833,4.6167c-0.9083,1.4833-1.8167,2.975-2.7167,4.4667c1.1833,1.5083,2.375,3.0167,3.5667,4.525
		c-2.5416,1.025-5.175,1.8667-7.6,3.1583c-3.1667,1.6917-3.9083,6.3083-7.7,7.05c-6.1,1.5583-11.9166,4.0083-18.0167,5.5833
		c-1.8666,0.3-2.3333,2.2417-3.0667,3.675c5.5417,1.4667,11.275,0.675,16.825-0.325c5.7083-1.0167,11.4916,0.2583,16.8834,2.125
		c4.125-1.825,8.7166-2.4833,12.5916-4.8833c1.9083-1.2083,4.2083-1.0167,6.3583-0.825c2.4833,0.625,5.3417,0.9,7.2917,2.75
		c0.6083,2.5833-2.075,3.3167-3.9583,4.0167c-0.45,1.875-0.8083,3.7583-1.175,5.65c1.3083-0.6084,2.6167-1.2083,3.8917-1.875
		c-3.6,7.1833-11.6334,10.4583-19.05,12.075c-5.35,1.45-10.6833-2.05-15.9917-0.3167c-4.4333,1.2167-8.6166,3.1667-12.9916,4.55
		c-6.0417,2.0167-12.6,2.1417-18.4167,4.8833c-11.225,5.3083-23.6917,7.625-34.4417,13.9917
		c-2.5833,1.725-1.8167,5.3083-2.15,7.9667c-2.35,0.4167-5.6917,1.7416-7.1083-1.0333c-1.2-3.0583,2.2333-5.3917,3.9-7.525
		c-0.725-0.625-1.45-1.25-2.1667-1.8666c-2.5,0.6333-5.025,1.325-7.1917,2.775c-4.4833,2.9583-9.4583,5.1-14.4667,6.975
		c-7.7,1.0917-15.625-0.9667-23.25,1.125c-4.4,1.375-8.8167-1.2416-13.225-0.0916c-8.425,1.775-17.1,3.1917-25.7167,2.175
		c-4.5667-0.525-9.0333,0.8083-13.55,1.1333c-3.45,0.25-6.8667,0.7833-10.2333,1.5333c-3.1583-2.75-7.4833-2.975-11.3167-4.1583
		c4.8583-2.7833,10.4916-0.5917,15.7083-0.6333c-0.525-0.8667-1.0417-1.725-1.5583-2.5833c-3.6333-0.1083-7.725,0.2083-10.5333-2.55
		c2.125-1.5833,4.1583-3.3,6.3583-4.7917c2.1833-1.5167,4.9917-1.5083,7.3333-2.6833c2.1167-1.3083,3.6167-3.35,5.1667-5.2417
		c-3.1166-0.2333-5.6417,1.5917-7.7917,3.6167c-1.1583-2.2833-2.5167-4.475-4.1666-6.425c-0.6667,1.4583-1.4083,2.8917-2,4.3917
		c-1.325-0.575-2.7083-1.0833-3.875-1.9417c-0.6917-1.3583-0.9833-2.875-1.3417-4.3417c4.6334-2.4666,9.3333-4.8583,14.4083-6.2917
		c7.0667-2.7417,13.6167-6.6583,20.7333-9.3083c5.2333-1.8583,9.7833-5.0917,14.3-8.2333c4.0917-2.8417,7.525-6.65,12.1417-8.7083
		c5.0583-2.2833,9.8917-5.5833,15.55-6.0917c3.65-0.425,4.9166,3.9,7.3167,5.8167c1.3,1.8417,3.5083,0.5833,5.175,0.0583
		c5.05-2.1417,9.9417-4.8833,15.4667-5.6167c-3.775,4.3-9.5583,5.425-14.5583,7.6667c-0.0167,0.7583-0.025,1.5167-0.0333,2.275
		c-4.3417,1-8.9667,1.5167-13.2917,0.1417c-2.7083-0.6084-5.55-2.1917-8.3167-1.0333c-3.6167,1.4583-7.175,3.0917-10.9417,4.15
		c-5.775,1.6583-9.8917,6.45-15.475,8.5167c-4.1917,2.0583-9.5667,2.7-12.4667,6.6917c0.025,0.3167,0.075,0.9417,0.1,1.25
		c2.1083,0.5417,4.2917,0.75,6.4584,1c-5.5583,2.975-11.0667,6.2667-17.225,7.875c-3.0167,0.8-6.0083,1.725-8.8333,3.05
		c2.8666,0.0333,5.7583-0.1334,8.575-0.75c5.0167-1.1167,10.2-1.4333,15.1-3.05c1.0833-0.1083,2.1667-0.2083,3.25-0.2833
		c-7.5333,4.3-15.8333,7.25-22.9083,12.3417c3.4583,0.125,6.925-0.0417,10.3666-0.375c-5.4083,2.0583-10.8833,3.95-16.425,5.6584
		c1.0917-1.2583,2.175-2.5083,3.2417-3.7834c-3.0833,1.1-5.975,2.7-8.3917,4.9417c5.8583,1.25,11.325-1.825,16.7416-3.525
		c10.825-4.2667,21.7917-8.1667,32.675-12.2833c4.6083-1.75,9.3917-3.1333,13.7667-5.4417c3.8083-1.9667,6.7667-5.5,11.0667-6.4667
		c5.2417-1.225,10.6084-1.8833,15.7667-3.4417c6.35-1.9417,12.95-3.175,19.0416-5.8833c5.8167-2.5583,11.7333-5.0333,18.0001-6.25
		c3.7083-0.7,7.3666-1.75,10.6917-3.575c-7.0917-0.7167-14.1667,0.9333-20.775,3.3833c-6.625,2.4667-12.7416,6.2083-19.625,7.9667
		c-6.3167,1.6333-12.6667,3.1583-19.1083,4.1667c-3.925,0.6167-7.8833,1.6-11.2333,3.825c-5.2667,3.4083-10.0667,7.775-16.2,9.6167
		c-11.0834,3.55-21.9084,8.3-33.5084,9.9333c9.7-6.1167,20.6583-9.9333,30.3667-16.05c2.5416-0.7,5.4083-0.9417,7.4083-2.8667
		c3.6917-3.275,7.3-7.3667,12.475-8.1c11.6583-1.1667,23.35-2.9917,34.55-6.525c8.5834-3.2583,17.2667-6.225,25.9917-9.0833
		c4.1166-1.3333,8.6333-0.4833,12.6667-2.175c4.65-1.9333,9.05-4.4417,13.3833-6.9917c-7.2416,0.0583-13.7166,4.0333-20.925,4.2333
		c-2.925,0.1333-5.7167-0.8583-8.5-1.6c2.55,0.0583,5.1166,0.0583,7.675-0.15c6.3666-0.475,12.2333-3.2083,18.3583-4.8
		c5.0583-1.3167,9.9666-3.125,14.6833-5.375c4.8667-2.4333,10.4333-2.0333,15.6667-2.9333
		C867.1583,208.9333,867.0583,206.95,867.725,205.1333z"/>
	<path fill="#F4B5AE" stroke="#F4B5AE" stroke-width="0.5" d="M819.1333,225.7c7.2084-0.2,13.6833-4.175,20.925-4.2333
		c-4.3334,2.55-8.7333,5.0583-13.3834,6.9917c-4.0333,1.6917-8.55,0.8417-12.6667,2.175c-8.725,2.8583-17.4083,5.825-25.9916,9.0833
		c-11.2,3.5333-22.8917,5.3583-34.55,6.525c-5.175,0.7333-8.7833,4.825-12.475,8.1c-2,1.925-4.8666,2.1667-7.4083,2.8667
		c0.8667-1.2833,1.675-2.6,2.4833-3.9167c-2.6333,0.8333-5.1167,2.0833-7.2167,3.9c-3.4333,2.9417-8,3.8-12.0667,5.5417
		c-4.9,1.6167-10.0834,1.9333-15.1,3.05c-2.8167,0.6167-5.7084,0.7834-8.575,0.75c2.825-1.325,5.8167-2.25,8.8333-3.05
		c6.1583-1.6083,11.6667-4.9,17.225-7.875c-2.1667-0.25-4.35-0.4583-6.4584-1c-0.025-0.3083-0.075-0.9333-0.1-1.25
		c2.9-3.9917,8.275-4.6333,12.4667-6.6917c5.5833-2.0667,9.7-6.8583,15.475-8.5167c3.7667-1.0583,7.325-2.6917,10.9417-4.15
		c2.7667-1.1584,5.6084,0.425,8.3167,1.0333c4.325,1.375,8.95,0.8583,13.2917-0.1417c7.1417-1.85,14.05-4.4833,21.0833-6.7
		c5.3833-1.65,10.625-4.725,16.45-4.0917C813.4167,224.8417,816.2083,225.8333,819.1333,225.7z"/>
	<path fill="#F7BAB2" stroke="#F7BAB2" stroke-width="0.5" d="M802.8917,237.75c6.6083-2.45,13.6833-4.1,20.775-3.3833
		c-3.325,1.825-6.9833,2.875-10.6917,3.575c-6.2667,1.2167-12.1833,3.6917-18,6.25c-6.0917,2.7083-12.6917,3.9417-19.0416,5.8833
		c-5.1584,1.5583-10.525,2.2167-15.7667,3.4417c-4.3,0.9667-7.2583,4.5-11.0667,6.4667c-4.375,2.3083-9.1583,3.6917-13.7667,5.4417
		c-10.8833,4.1167-21.85,8.0167-32.675,12.2833c-5.4167,1.7-10.8833,4.775-16.7416,3.525c2.4166-2.2417,5.3083-3.8416,8.3917-4.9417
		c-1.0667,1.275-2.15,2.525-3.2417,3.7833c5.5417-1.7083,11.0167-3.6,16.425-5.6583c-3.4417,0.3333-6.9084,0.5-10.3667,0.375
		C704.2,269.7,712.5,266.75,720.0333,262.45c-1.0833,0.075-2.1667,0.175-3.25,0.2833c4.0667-1.7416,8.6334-2.6,12.0667-5.5417
		c2.1-1.8167,4.5833-3.0667,7.2167-3.9c-0.8083,1.3167-1.6167,2.6333-2.4834,3.9167c-9.7083,6.1167-20.6666,9.9333-30.3666,16.05
		c11.6-1.6333,22.425-6.3834,33.5083-9.9333c6.1334-1.8417,10.9333-6.2083,16.2-9.6167c3.35-2.225,7.3083-3.2083,11.2333-3.825
		c6.4417-1.0083,12.7917-2.5333,19.1083-4.1667C790.15,243.9583,796.2667,240.2167,802.8917,237.75z"/>
	<path fill="#F6C3BA" stroke="#F6C3BA" stroke-width="0.5" d="M829.975,270.6583c9.2584-3.3417,18.55-7.0083,28.3834-8.2417
		c-2.7417,2-5.575,3.875-8.2917,5.9167c8.1833-0.5417,15.5583-4.7417,23.7083-5.4583c-2.475,2.2833-5.5833,3.6667-8.75,4.7167
		c-6.3333,2.0917-12.4916,4.7917-19.0833,6.0417c-7.9583,2.1667-15.9667,4.1583-24.0417,5.8917
		c-3.1583,0.675-6.4083,0.7-9.6166,0.4417C816.7,274.6667,823.7083,272.8167,829.975,270.6583z"/>
	<path fill="#F3BEB1" stroke="#F3BEB1" stroke-width="0.5" d="M970.9083,294.25c2.9917-1.625,7.0417-4.0833,10.15-1.3667
		c-2.8667,1.6917-5.6417,3.6166-7.6417,6.3333c-2.0583,2.8417-5.325,4.2834-8.325,5.8917c-3.425,1.7917-6.6666,4.4417-10.725,4.4833
		c-4.3334,0.225-8.7333,0.4417-12.8917,1.825c-4.6166,1.3417-8.7083,4.1667-13.475,5.025c-2.9833,0.5333-5.7917-1.1-8.75-1.05
		c-2.7,0.3417-5.3083,1.1917-7.95,1.825c-3.8333,0.8583-6.9833,3.3083-10.3,5.2667c5.1166,0.8583,9.8917-1.375,14.6666-2.8
		c2.75-0.9333,5.3583,0.7417,7.775,1.8333c-4.9584,0.35-10.0583,0.375-14.7417,2.275c-5.7583,2.275-11.625,4.3584-17.6583,5.7834
		c-4.45,1.05-9.0667,0.5833-13.5583,1.3c-5.1667,0.7583-10.1417,2.4667-15.3334,3.1083c-5.9833,0.7-11.2583,3.775-16.9666,5.4167
		c0.625-0.95,1.2583-1.8834,1.9-2.8167c-0.4417-0.9167-0.8833-1.8333-1.3167-2.7333c2.0667-1.7167,5.475-4.5083,7.8167-1.7417
		c8.4333-2.3667,16.3749-6.0833,24.6-9.0333c7.3917-3.1333,15.1833-5.1667,22.575-8.3c5.7-2.4833,12.05-2.5417,17.9-4.5583
		c5.2833-1.8916,11.0167-1.7333,16.325-3.525c5.975-1.875,12.2917-2.025,18.3583-3.475
		C959.775,301.5333,965.3834,297.8167,970.9083,294.25z"/>
	<path fill="#F2C2B4" stroke="#F2C2B4" stroke-width="0.5" d="M1116.75,305.8917c3.2666-0.9417,7.0083-2.5417,10.1583-0.3833
		c-7.1333,4.575-15.6583,6.1833-23.1583,10c-2.8251,1.8667-5.0751,4.5083-8.125,6.0417c-8.05,5.1167-17.9584,5.0333-26.7084,8.2833
		c-3.8417,0.9-0.2,5.9083-2.75,7.95c-1.9916,1.3333-4.5,1.525-6.5667,2.7167c-2.1083,2.0583-3.475,4.95-6.2916,6.2166
		c-5.7916,3.0167-12.05,5.1584-18.4,6.6167c-4.9166,1.1333-9.9833-0.1083-14.9083,0.85c-4.4167,0.775-8.8167,2.175-13.35,1.725
		c-3.4584-0.25-6.825-1.5333-10.3083-1.2c-4.5333,0.5-8.7833,2.2167-13.1083,3.525c-3.2917,1.0167-6.7584,1.025-10.1251,1.6083
		c-3.025,0.5083-5.7666,1.925-8.575,3.0667c-3.7667,1.5583-7.8083,2.2083-11.7,3.3417c-5,1.4417-10.1083,2.6333-15.3167,2.95
		c-3.6083,0.2417-7.15-0.7583-10.75-0.6166c-3.5333,0.3833-6.7333,2.075-10.1,3.1c-28.225,9.1417-57.6334,14.2667-85.5084,24.55
		c-7.975,3.0167-16.225,5.2-24.175,8.275c-7.75,2.9917-15.6334,5.5916-23.5,8.225C778.25,414.4667,773,416.375,767.45,416.775
		c1.9166-1.8167,4.0583-3.3667,6.325-4.7083c3.6251-2.175,6.8834-4.9333,10.7084-6.775c4.9583-2.4333,10.1833-4.2333,15.2833-6.3333
		c2.2416-0.85,4.4917-1.9417,6.9417-1.9917c11.4917,0.6917,22.2833-4.1,33.1166-7.1667c7.4584-1.975,14.4667-5.3083,21.9333-7.2667
		c4.4833-1.1667,8.7084-3.1,13.1667-4.3583c12.6-3.2083,24.975-7.2333,37.4583-10.8833c4.8417-1.2917,9.6334-3.7833,14.775-2.875
		c4.0083,0.5916,8.1,0.7,12.075-0.2083c6.3333-1.425,13-1.6417,18.9833-4.3583c3.1334-1.325,6.0917-3.175,9.475-3.8416
		c2.125-0.4583,4.3333-0.4833,6.425-1.125c2.7917-1.15,4.2917-4.175,7.025-5.4c7.525-0.0083,15.0333,0.9583,22.5167,1.675
		c5.7417,0.475,11.1917-2.4834,16.9333-1.7667c7.2084,0.85,14.8584,0.2167,21.3916-3.15c3.0417-1.5667,6.6833-1.975,9.4083-4.1167
		c2.0333-2.725,3.3334-5.9333,5.4584-8.6083c1.7417-2.05,1-4.8667,0.9335-7.3c7.3499-0.5417,14.4166-2.6917,21.5499-4.3917
		c3.475-0.975,7.075-1.5916,10.4333-2.95c2.9917-1.1584,2.6084-5.7417,5.925-6.5334
		C1102.575,309.7833,1109.7833,308.225,1116.75,305.8917z"/>
	<path fill="#EFC1AE" stroke="#EFC1AE" stroke-width="0.5" d="M1146.5583,360.7083c13.1333-4.35,26.575-7.6667,39.875-11.4333
		c2.1249,0.8083,3.9166,2.2417,5.9166,3.2917c3.0083,0.1917,6.0833-0.525,9.0416,0.4833
		c-5.5834,6.7417-14.9501,6.3667-22.5416,9.1333c-9.2417,3.375-19.1667,5.3333-27.4501,10.875
		c-4.2167,2.6583-9.0499,4.1083-13.275,6.7417c-2.7499,1.6917-5.3416,3.625-8.2166,5.1c-4.675,2.4583-9.8584,3.65-14.9,5.1083
		c-8.0417,2.2917-16.15,4.3167-24.175,6.65c-9.2,3.175-18.1917,7.2083-27.8417,8.8833c-5.2583,1-10.7333,0.725-15.8666,2.3917
		c-5.775,1.8833-11.7667,2.9417-17.7251,3.9917c-3.1083,0.625-6.1417-0.475-9.1166-1.2c-3.0083-0.7667-6.1333-0.725-9.2083-0.6583
		c0.7583-0.8583,1.5167-1.7083,2.275-2.5583c7.8-0.8417,15.5-2.3833,23.0499-4.5c6.5667-1.7083,13.4333-2.4833,19.6833-5.2667
		c4.6666-2.0167,8.5667-5.3833,13.0583-7.7167c4.6749-2.4583,9.7-4.15,14.4583-6.4417c5.2084-2.525,10.875-3.9167,16.125-6.35
		c4.1334-1.8917,8.5166-3.15,12.7583-4.775C1123.5833,367.8417,1135.1,364.3333,1146.5583,360.7083z"/>
	
		<radialGradient id="SVGID_1_" cx="1094.8326" cy="578.1746" r="1017.261" gradientTransform="matrix(0.8333 0 0 -0.8333 480 1333.3333)" gradientUnits="userSpaceOnUse">
		<stop  offset="0" style="stop-color:#EC9F8A"/>
		<stop  offset="0.0973" style="stop-color:#EDA793"/>
		<stop  offset="0.3021" style="stop-color:#EFB19F"/>
		<stop  offset="0.5021" style="stop-color:#F0B5A3"/>
		<stop  offset="1" style="stop-color:#E88F77"/>
	</radialGradient>
	<path fill="url(#SVGID_1_)" stroke="#EFA998" stroke-width="0.5" d="M1761.1833,0h-401.4H480v50.6834v82.8333v36.425v62.1417
		V271.65v102.2332V546.65v106.675v184.5084c7.3-5.7583,16.7667-7.7001,25.85-8.25c6.6833-0.2167,13.375-0.5417,20.0583-0.175
		c7.6417,0.3833,14.8834,3.0917,22.25,4.9249c10.9334,2.5,22.3,0.3167,33.2751,2.5084c9.7083,1.8832,19.7917,3.75,29.625,1.65
		c10.2584-2.875,19.9417-7.4417,29.4417-12.2083c5.9916-3.025,12.6167-4.7167,18.3334-8.3c3.8-2.5167,6.4916-6.2833,9.7416-9.4
		c3.775-4.025,8.1583-7.4167,12.0083-11.3666c4.025-4.0583,5.65-9.7417,9.1167-14.2c4.3917-5.875,10.275-10.3416,16.05-14.75
		c4.9667-3.7084,9.5333-8.175,15.4167-10.4333c7.2583-3.0834,15.2583-3.6083,23.05-3.5334c8.5083,0.075,16.4333,3.725,23.9,7.475
		c7.1667,3.5167,13.55,8.4,20.7417,11.8667c2.2333,1.1,4.5083,2.1166,6.725,3.2666c10.4167,5.2667,17.425,15.6168,28.4417,19.8917
		c9.975,4.4583,21.1583,3.5583,31.8083,3.8917c14.45-0.425,28.5917,3.3917,42.175,7.9833c11.75,3.8583,23.1417,8.8501,33.9083,14.95
		c7.125,3.2833,13.8751,7.3,20.8,10.9835c5.1,3.25,10.4083,6.1583,15.725,9.0416c17.3167,9.4167,34.8417,18.4417,52.7,26.7917
		c2.2916,1.2166,4.5082,2.575,6.8,3.8083c6.7833,3.3834,13.5083,6.9334,20.5,9.8833c9.2916,3.9334,19.2749,6.0001,29.3168,6.7334
		c10.0166,0.2167,20.1416,0.9,30.0498-1.0167c4.0083-0.0917,7.9917-0.6083,11.9834-0.9666
		c9.4083-1.175,18.8667-1.9333,28.3333-2.4083c3.9083-0.2333,7.8083-0.425,11.7252-0.4167
		c-0.4083-15.3583,1.1249-30.7166,4.0499-45.7833v-0.0001c0.2-0.9584,0.4166-1.9083,0.65-2.8417
		c3.5416-15.2167,7.65-30.5083,14.8417-44.4583c0.8334-2.2416,1.75-4.45,2.8168-6.5916
		c6.7749-13.5417,14.6749-26.5583,24.0499-38.4667c32.9917-42.5167,82.0083-72.325,135.0667-81.575
		c17.6917-3.0333,35.7583-4.4583,53.6917-2.9917c28.0667,1.8917,55.8,9.0334,81.125,21.3333
		c26.2917,12.6,49.9917,30.5334,69.3251,52.35c16.9583,18.9333,30.3083,40.95,39.8666,64.4583
		c4.65,11.575,8.2584,23.5667,10.8167,35.775c0.8334,4.0585,1.8085,8.0834,2.7001,12.1334c0.2833,5.575,1.2416,11.0833,1.6499,16.65
		c0.8083,11.2833,0.7751,22.625,0.0751,33.9249c-0.475,7.3083-1.7916,14.5251-2.5166,21.8084
		c4.9165,2.9666,10.0332,5.5916,15.1167,8.2833c5.5499,1.8167,10.9916,3.9833,16.6666,5.4167
		c10.8499,4.5584,22.7166,5.7416,34.3667,6.2c9.2832,0.4501,17.6582,4.8583,26.4999,7.15c1.4667,0.2334,2.9501,0.4333,4.4667,0.5834
		c7.55-1.3917,15.2084-1.9584,22.7999-3.0667c9.5167-1.325,19.0251-2.7417,28.5251-4.15c12.35-2.1833,24.475-5.5916,36.0916-10.325
		c0.9584-0.3417,1.9417-0.675,2.9333-1.0166c4.1417-1.8251,9.2584-2.6751,11.9834-6.6667c3.1333-4.5667,4.5834-10.0917,8.1-14.4334
		c4.2167-5.5083,9.5917-10.0666,15.6083-13.525c9.1833-5.475,18.1417-11.325,27.2833-16.8666
		c11.3251-6.1334,22.5585-12.4417,33.65-19.0083c6.0333-2.9084,12.1417-6.1168,18.9167-6.8167c1.975-0.3,4.1833-0.1,5.6832,1.3917
		c4.0583,3.7665,6.3,9.1832,10.9001,12.45c8.1499,6.3,19.3999,5.225,28.875,3.1833c12.2333-4.475,23.2916-11.5,34.6667-17.7333
		c3.7415-2.1083,7.6249-3.9583,11.3248-6.15c4.775-2.6833,6.8002-8.15,10.8584-11.6333
		c6.4749-5.8083,11.1501-13.1833,16.575-19.8917c4.4999-5.7083,11.5665-8.0667,17.4666-11.9167
		C2050.825,794.75,2065.6333,788.8917,2080,782.3V233.975v-38.1583v-55.1583v-23.1667v-45.85v-44.35V0H1761.1833z
		 M934.9833,306.6917c5.975-1.875,12.2916-2.0251,18.3583-3.475c6.4333-1.6833,12.0417-5.4,17.5667-8.9667
		c2.9917-1.6251,7.0417-4.0833,10.15-1.3667c-2.8667,1.6917-5.6417,3.6167-7.6417,6.3334c-2.0583,2.8416-5.325,4.2832-8.325,5.8916
		c-3.425,1.7917-6.6666,4.4417-10.725,4.4833c-4.3334,0.225-8.7333,0.4417-12.8917,1.8249
		c-4.6166,1.3418-8.7083,4.1667-13.475,5.025c-2.9833,0.5334-5.7917-1.1001-8.75-1.05c-2.7,0.3417-5.3083,1.1916-7.95,1.8249
		c-3.8333,0.8583-6.9833,3.3084-10.3,5.2668c5.1166,0.8583,9.8917-1.375,14.6666-2.8c2.75-0.9333,5.3583,0.7417,7.775,1.8334
		c-4.9584,0.3499-10.0583,0.375-14.7417,2.275c-5.7583,2.275-11.625,4.3583-17.6583,5.7833c-4.45,1.05-9.0667,0.5833-13.5583,1.3
		c-5.1667,0.7583-10.1417,2.4667-15.3334,3.1084c-5.9833,0.7-11.2583,3.775-16.9666,5.4167c0.625-0.95,1.2583-1.8833,1.9-2.8167
		c-0.4417-0.9166-0.8833-1.8333-1.3167-2.7333c2.0667-1.7166,5.4749-4.5083,7.8166-1.7416c8.4334-2.3668,16.375-6.0833,24.6-9.0334
		c7.3917-3.1333,15.1833-5.1667,22.575-8.3c5.7-2.4833,12.05-2.5417,17.9-4.5583
		C923.9417,308.325,929.675,308.4832,934.9833,306.6917z M873.775,262.875c-2.475,2.2833-5.5833,3.6667-8.75,4.7167
		c-6.3333,2.0917-12.4916,4.7917-19.0833,6.0417c-7.9583,2.1667-15.9667,4.1583-24.0417,5.8916
		c-3.1583,0.6751-6.4083,0.7001-9.6166,0.4417c4.4166-5.3,11.425-7.15,17.6917-9.3083c9.2584-3.3417,18.55-7.0083,28.3834-8.2418
		c-2.7417,2.0001-5.575,3.8751-8.2917,5.9167C858.25,267.7917,865.625,263.5917,873.775,262.875z M663.1833,215.3333
		c-0.3841-0.4453-0.7235-0.9328-1.0367-1.4451C662.4598,214.4004,662.7993,214.8879,663.1833,215.3333z M657.4167,254.2251
		c-4.6251,3.6416-9.4833,7.5166-15.5001,8.3916c-5.55,0.825-10.9833,2.175-16.3583,3.7749
		c-7.725,1.8501-15.6083,5.3084-23.6833,3.2917c-1.825-0.3333-4.175-2.3083-3.1167-4.2917
		c0.9583-2.3667,2.5333-4.4084,4.0167-6.4583c-4.7583,1.65-9.725,0.6167-14.5833,0.3417
		c-5.1917-0.2917-9.6333,2.7083-14.2917,4.4666c-2.675,1.0667-5.5667,0.3167-8.2916-0.0417
		c-1.6417-4.125,0.0333-8.8333,3.2583-11.65c2.3583-0.8417,4.925-0.6167,7.3834-0.7583c1.9833-2.3,3.5333-6.1251,7.075-6.025
		c5.8833,0.1333,11.6417,1.8333,17.55,1.5749c5.975-0.0167,11.2833-3.1918,16.0416-6.4833c0.0001,0,0.0001-0.0001,0.0001-0.0001
		c2.7416-1.9916,5.25-4.2666,7.8-6.4916c4.0166-3.4917,6.9916-8.0167,11.1917-11.3082c4.45-3.4917,8.8333-7.5501,14.6083-8.6251
		c1.325,2,2.4083,4.3083,4.375,5.7749c2.525,1.5,5.5667,1.7083,8.4333,1.8334c8.5833,0.0083,17.325-0.7751,25.45-3.6417
		c4.475-4.625,7.15-11.125,12.95-14.4583c4.6917-2.4751,9.9167-3.7084,14.9917-5.1333c4.6583-1.1001,9.8583-2.325,14.4166-0.2083
		c1.4083,2.7417-1.6083,5.0584-2.7665,7.3083c6.4916-0.2584,13.075-0.2751,19.425-1.8083c8.075-2.0001,15.675-5.4333,23.475-8.2418
		c3.8334-1.4833,7.9333-0.3166,11.9-0.5332c8.6-0.55,17.125-1.9668,25.525-3.8833c1.3833,0.7,2.8167,2.2,4.475,1.35
		c3.675-1.3001,7.1083-3.4832,11.0917-3.7417c4.6417-0.3001,9.3-0.8083,13.9583-0.7749c1.9917-0.0667,3.125,1.9332,4.0167,3.4166
		c1.375,2.3167-0.3,4.9584-1.8083,6.7418c-2.5667,2.9083-6.8167,2.4499-10.2499,3.3417c-4.425,0.7332-8.075,3.9833-12.5834,4.3083
		c-3.15-0.9666-4.05-4.7583-5.6083-7.3c-6.0333,1.075-11.6333,3.675-17.45,5.5084c-6.5667,2.3416-13.225,4.375-19.7833,6.7333
		c-5.7583,2.075-11.925,2.475-17.7833,4.1417c-3.9417,1.05-7.8333,2.7417-11.9916,2.5333
		c-7.425-0.3918-14.8667-0.5583-22.2501-1.4583c-2.4666-0.1501-5.15-0.6416-7.4666,0.4749c-4.35,3.2667-5.8167,8.7666-8.575,13.2001
		c-3.8417,4.6082-9.825,6.475-15.15,8.7666c-5.825,2.25-10.95,5.9583-16.8333,8.0582
		C668.7583,248.45,662.475,250.2333,657.4167,254.2251z M683.925,254.0999L683.925,254.0999
		c-0.6666-0.5499-1.3333-1.0999-1.9916-1.6417h0.0001C682.5917,253.0001,683.2584,253.55,683.925,254.0999z M753.3417,285.9167
		c-4.4,1.375-8.8167-1.2416-13.225-0.0916c-8.425,1.775-17.1,3.1917-25.7167,2.175c-4.5667-0.525-9.0333,0.8084-13.55,1.1333
		c-3.45,0.25-6.8667,0.7832-10.2333,1.5334c-3.1583-2.75-7.4833-2.9751-11.3167-4.1583c4.8583-2.7834,10.4917-0.5918,15.7084-0.6333
		c-0.525-0.8667-1.0417-1.7251-1.5583-2.5834c-3.6334-0.1083-7.725,0.2083-10.5333-2.5499c2.125-1.5833,4.1583-3.3001,6.3583-4.7917
		c2.1833-1.5166,4.9916-1.5084,7.3333-2.6834c2.1167-1.3082,3.6167-3.35,5.1667-5.2415c-3.1166-0.2333-5.6417,1.5916-7.7917,3.6166
		c-1.1583-2.2833-2.5167-4.475-4.1666-6.425c-0.6667,1.4583-1.4084,2.8917-2,4.3917c-1.325-0.5751-2.7084-1.0833-3.875-1.9417
		c-0.6917-1.3583-0.9833-2.875-1.3417-4.3417c4.6333-2.4666,9.3333-4.8584,14.4083-6.2917
		c7.0667-2.7417,13.6166-6.6583,20.7333-9.3082c5.2333-1.8583,9.7833-5.0918,14.3-8.2333c4.0917-2.8417,7.525-6.6501,12.1417-8.7084
		c5.0583-2.2833,9.8917-5.5833,15.55-6.0916c3.65-0.425,4.9166,3.9001,7.3167,5.8167c1.3,1.8418,3.5083,0.5834,5.175,0.0582
		c5.05-2.1416,9.9417-4.8832,15.4667-5.6167c-3.775,4.3-9.5583,5.425-14.5583,7.6667c-0.0167,0.7583-0.025,1.5166-0.0333,2.275
		c7.1417-1.8501,14.05-4.4833,21.0833-6.7c5.3833-1.65,10.625-4.725,16.45-4.0917c2.55,0.0584,5.1166,0.0584,7.675-0.1499
		c6.3666-0.4751,12.2333-3.2083,18.3583-4.8c5.0583-1.3168,9.9666-3.125,14.6833-5.375c4.8667-2.4333,10.4333-2.0334,15.6667-2.9333
		c0.1417-1.9083,0.0416-3.8917,0.7083-5.7084c1.9667-2.1498,5.175-2.7916,7.9833-2.5249c3.1666,0.2833,5.5583,2.575,7.7833,4.6166
		c-0.9083,1.4833-1.8167,2.9751-2.7167,4.4668c1.1833,1.5083,2.375,3.0166,3.5667,4.5249c-2.5416,1.025-5.175,1.8667-7.6,3.1583
		c-3.1667,1.6917-3.9083,6.3084-7.7,7.05c-6.1,1.5583-11.9166,4.0084-18.0167,5.5833c-1.8668,0.3001-2.3333,2.2417-3.0668,3.6752
		c5.5417,1.4666,11.275,0.6749,16.825-0.3251c5.7084-1.0167,11.4917,0.2584,16.8834,2.125
		c4.125-1.8249,8.7167-2.4833,12.5917-4.8833c1.9083-1.2084,4.2083-1.0167,6.3583-0.825c2.4833,0.625,5.3416,0.9,7.2916,2.7499
		c0.6083,2.5834-2.075,3.3167-3.9583,4.0167c-0.45,1.875-0.8083,3.7583-1.175,5.65c1.3083-0.6084,2.6166-1.2084,3.8917-1.875
		c-3.6,7.1832-11.6334,10.4582-19.05,12.075c-5.35,1.45-10.6833-2.05-15.9917-0.3167c-4.4333,1.2167-8.6166,3.1666-12.9916,4.55
		c-6.0417,2.0167-12.6,2.1416-18.4167,4.8833c-11.225,5.3083-23.6917,7.625-34.4417,13.9917
		c-2.5834,1.7251-1.8167,5.3083-2.15,7.9667c-2.35,0.4167-5.6917,1.7415-7.1083-1.0333c-1.2-3.0585,2.2333-5.3918,3.9-7.525
		c-0.725-0.625-1.45-1.25-2.1667-1.8667c-2.5,0.6334-5.025,1.325-7.1917,2.775c-4.4833,2.9583-9.4584,5.1-14.4667,6.975
		C768.8917,285.8834,760.9667,283.825,753.3417,285.9167z M1006.65,355.9083c-3.4584-0.2499-6.825-1.5333-10.3083-1.2001
		c-4.5333,0.5001-8.7833,2.2168-13.1083,3.5251c-3.2917,1.0167-6.7584,1.025-10.1251,1.6084
		c-3.025,0.5082-5.7666,1.9249-8.575,3.0666c-3.7667,1.5583-7.8083,2.2083-11.7,3.3417c-5,1.4417-10.1083,2.6332-15.3167,2.95
		c-3.6083,0.2416-7.15-0.7583-10.75-0.6166c-3.5333,0.3833-6.7333,2.075-10.1,3.1c-28.225,9.1417-57.6334,14.2667-85.5084,24.55
		c-7.975,3.0167-16.225,5.2-24.175,8.2749c-7.75,2.9918-15.6334,5.5918-23.5,8.2251C778.25,414.4667,773,416.3749,767.45,416.775
		c1.9166-1.8168,4.0583-3.3667,6.325-4.7083c3.6251-2.175,6.8834-4.9332,10.7084-6.775c4.9583-2.4333,10.1833-4.2333,15.2833-6.3333
		c2.2416-0.85,4.4917-1.9417,6.9417-1.9917c11.4917,0.6917,22.2834-4.1,33.1168-7.1667c7.4584-1.975,14.4667-5.3083,21.9332-7.2667
		c4.4833-1.1667,8.7084-3.1,13.1667-4.3583c12.6-3.2084,24.975-7.2334,37.4583-10.8834c4.8417-1.2917,9.6334-3.7834,14.775-2.875
		c4.0083,0.5917,8.1,0.7,12.075-0.2083c6.3333-1.4251,13-1.6418,18.9833-4.3584c3.1334-1.3251,6.0917-3.175,9.475-3.8417
		c2.125-0.4583,4.3333-0.4833,6.425-1.125c2.7917-1.15,4.2917-4.175,7.025-5.4c7.525-0.0083,15.0333,0.9583,22.5167,1.675
		c5.7417,0.4749,11.1917-2.4834,16.9333-1.7667c7.2084,0.85,14.8584,0.2167,21.3916-3.15c3.0417-1.5667,6.6833-1.975,9.4083-4.1166
		c2.0333-2.725,3.3334-5.9334,5.4584-8.6084c1.7417-2.05,1-4.8667,0.9335-7.3c7.3499-0.5416,14.4166-2.6917,21.5499-4.3917
		c3.475-0.9749,7.075-1.5916,10.4333-2.95c2.9917-1.1582,2.6083-5.7416,5.925-6.5332c6.8833-2.5584,14.0916-4.1168,21.0582-6.45
		c3.2667-0.9417,7.0083-2.5417,10.1584-0.3834c-7.1334,4.575-15.6583,6.1833-23.1583,10c-2.825,1.8667-5.0751,4.5083-8.125,6.0417
		c-8.0499,5.1167-17.9583,5.0332-26.7083,8.2834c-3.8417,0.9-0.2001,5.9084-2.75,7.9499c-1.9917,1.3333-4.5,1.525-6.5667,2.7167
		c-2.1084,2.0584-3.475,4.9501-6.2916,6.2168c-5.7917,3.0166-12.05,5.1583-18.4,6.6166c-4.9167,1.1333-9.9834-0.1083-14.9084,0.85
		C1015.5833,354.9583,1011.1833,356.3583,1006.65,355.9083z M1178.85,362.1833c-9.2417,3.3749-19.1666,5.3333-27.4501,10.8749
		c-4.2166,2.6584-9.0498,4.1084-13.2749,6.7418c-2.75,1.6917-5.3416,3.625-8.2167,5.1c-4.6749,2.4583-9.8584,3.65-14.9,5.1083
		c-8.0416,2.2917-16.15,4.3166-24.1749,6.65c-9.2001,3.175-18.1918,7.2083-27.8417,8.8832
		c-5.2583,1.0001-10.7334,0.7251-15.8667,2.3918c-5.775,1.8833-11.7666,2.9417-17.725,3.9917
		c-3.1083,0.625-6.1418-0.4751-9.1167-1.2001c-3.0083-0.7667-6.1333-0.725-9.2083-0.6584c0.7583-0.8582,1.5167-1.7083,2.275-2.5582
		c7.8-0.8417,15.5-2.3834,23.05-4.5c6.5667-1.7083,13.4332-2.4833,19.6832-5.2666c4.6667-2.0167,8.5668-5.3834,13.0583-7.7167
		c4.6752-2.4584,9.7001-4.15,14.4585-6.4417c5.2083-2.525,10.8749-3.9167,16.1249-6.3501c4.1334-1.8917,8.5167-3.15,12.7584-4.775
		c11.1001-4.6167,22.6167-8.125,34.0751-11.75c13.1333-4.35,26.575-7.6667,39.8749-11.4333
		c2.125,0.8083,3.9167,2.2417,5.9167,3.2917c3.0083,0.1917,6.0834-0.525,9.0416,0.4833
		C1195.8083,359.7917,1186.4417,359.4167,1178.85,362.1833z M1399.8417,200.4751c-3.3,1.8667-6.2417,4.6166-9.9751,5.5416
		c-5.3167,0.0167-11.2832-1.1999-14.4417-5.9167c-0.8667,1.55-1.725,3.1-2.575,4.6583c-11.1499,0.8583-22.3833-0.6-33.4917,0.9667
		c-2.2916,0.2416-4.5917,0.0667-6.8833,0.1667c-2.6833,0.0249-3.85,2.9083-5.3333,4.6833
		c6.3082-0.7832,12.4249-2.7333,18.7916-3.1666c0,1.5583-0.1833,3.1749,0.2999,4.6917c3.1584,1.8917,7.0583,1.7999,10.5834,2.5582
		c-3.7,2.0501-8.375,3.0668-10.575,7.0251c1.4667,0.2583,2.9584,0.5,4.45,0.7499c0.3667,0.9084,0.7333,1.8168,1.1167,2.725
		c-6.2167,2.925-12.9,4.5917-19.5334,6.2583c-6.3999,1.4917-12.4249,4.4334-19.025,5.0751
		c-4.9667,0.4749-9.4417,2.7416-14.0583,4.4166c-4.7166,1.875-10.4166,0.1-14.5083,3.6667
		c-1.5082-0.225-3.0083-0.4583-4.5083-0.6918c-1.4166,1.2334-2.7833,2.5751-4.4417,3.475c-1.6168,0.1083-2.3333-1.7667-3.4-2.6501
		c-6.625-0.8333-13.2751,0.1084-19.7583,1.4583c-9.475,2.2253-19.325-0.1082-28.825,1.8168
		c-1.1915,0.6917-2.0249,1.8251-2.95,2.8167c-3.3501-1.975-6.9-3.6333-9.9917-6.0083c5.8417-1.6583,11.55-3.8833,17.6001-4.7167
		c5.0166-0.5751,8.7916-4.4166,13.6749-5.4167c7.3418-1.6167,14.575-3.7001,21.8334-5.6666
		c2.8584-0.7751,5.5917-1.9584,8.2167-3.3417c-8.1166,0.9083-16.0416,2.8833-23.925,4.9583
		c-6.8666,1.3417-13.3416,4.0833-20.125,5.75c-7.325,1.85-14.3082,4.7833-21.6,6.7417c-9.1416,2.1833-17.8666,6.2917-27.3667,6.7168
		c-4.2499,0.2583-7.5999,3.2583-11.6083,4.3333c-7.4916,2.1-14.1333,6.45-21.75,8.1751c-7.2917,1.675-14.0248,5.0167-21.1499,7.2249
		c-4.3917,1.4001-8.6084,3.3834-13.1417,4.3416c-2.9917,0.6584-6.05,1.05-8.95,2.0584c-3.4001,1.1667-6.5084,3.0167-9.8584,4.2917
		c-1.1321,0.5133-2.2943,0.9185-3.4758,1.2545c1.1815-0.3361,2.3438-0.7412,3.4758-1.2545
		c-4.1334-0.2668-8.2416-0.975-12.1583-2.3167c5.5667-0.4667,11.2001-0.4751,16.6917-1.6667c-1.5083-1.9833-2.975-3.9917-4.4-6.0333
		c-6.775-0.5668-13.5667-0.0918-20.35-0.125c-2.3167,0.0582-4.5249-0.6749-6.5667-1.7166
		c4.9084-2.4668,10.5083-3.2667,15.1833-6.2667c-1.4166-1.2417-2.7084-3.0251-4.7583-3.0918
		c-4.0668-0.2833-8.1417-0.3417-12.2085-0.5417c-4.0165-0.5082-5.9332,4.4334-9.7749,4.5334
		c-4.725,0.075-9.4501-0.5083-14.0751-1.45c4.0834-0.4749,8.1833-0.1834,12.2667,0.175c-0.0084-2.4667,0.0583-5.325,2.2833-6.9166
		c2.75-2.625,6.7833-1.5667,10.1083-2.5668c1.3083-1.3082,2.1333-3,3.1-4.55c3.8334-0.1917,7.7334,0.0833,11.4917-0.8083
		c0.7666-1.6167,1.0166-3.4167,1.325-5.1584c-7.7916-0.5583-15.5333,0.7417-23.3167,0.7834c-6.1,0-12.35,1.0083-18.2749-0.95
		c3.8999-2.3,8.5083-1.175,12.7416-2.0083c0.9917-1.2083,1.6167-2.6583,2.35-4.0251c4.15-0.4335,8.6416,0.0665,12.35-2.2085
		c2.5416-1.6082,5.5583-1.9167,8.5-1.975c0.4333,0.5583,0.875,1.125,1.3251,1.6999c1.05-0.85,2.0667-1.8082,3.3167-2.3667
		c3.75-0.0416,7.4584,1.35,11.225,0.6084c5.175-0.8834,10.4083-0.2751,15.6167-0.5751c6.7417-1.0084,12.8916-4.1833,19.125-6.7917
		c4.5251-2.0417,9.7084-0.2417,14.2751-2.1334c5.3416-2.1249,10.3916-5.0083,15.9832-6.4916
		c5.9001-1.6833,12.0834-0.8417,18.125-1.325c4.175-0.3333,8.375-0.4,12.5585-0.7417c3.4666-0.1834,6.0583-2.8,9.2583-3.7999
		c2.875-0.6168,5.8417-0.1751,8.7666-0.1502c5.3917,0.225,10.7085-1.1833,16.1084-0.9583c4.2168,0.1167,8.5001,1.225,12.675,0.075
		c4.1417-1.1333,8.3667-1.8667,12.6333-2.3667c5.6666-0.6417,10.6832-3.6999,16.3168-4.5166
		c5.0083-0.8001,9.8834-2.7417,15.0332-2.4084c5.1084,0.2333,10.1917,0.8083,15.2917,1.25c0.8333,1.3334,1.6749,2.6667,2.5333,4
		c3.1-1.1999,6.2582-2.3833,9.5999-2.675c5.2917-0.6667,10.7417-0.0417,15.9167-1.5833c4.2251-1.275,8.6333-0.0499,12.9417-0.5083
		c4.0833-0.4333,8.2084-0.625,12.3083-0.1417c0.6666,1.4917,1.35,2.9833,2.0416,4.475c3.2167-2.3501,6.7167-4.3249,10.6-5.3333
		c5.3668-1.4251,9.65-5.45,15.1666-6.4418c4.0251-0.6749,8.1168-0.1584,12.1584,0.0917c-1.3334-0.9666-2.6584-1.9249-3.9584-2.8917
		c5.4833-2.7917,11.6918,0.0667,17.4249-1.575C1400.0582,191.9917,1400.1417,196.2417,1399.8417,200.4751z M1073.2239,229.7937
		c0.5217,0.2032,0.9683,0.6136,1.3903,1.0279C1074.1921,230.4074,1073.7456,229.9969,1073.2239,229.7937z M1323.2913,155.9674
		c3.0582-0.0337,6.1138-0.2773,9.0979-0.9568C1329.405,155.6903,1326.3495,155.9337,1323.2913,155.9674z M1419.6499,129.675
		c-3.225,2.1333-5.6166,5.2167-7.7,8.425c-8.4166,0.5417-16.8833,0.4083-25.275-0.4917c-0.2667,0.9583-0.5333,1.9082-0.775,2.8751
		c-3.9916,0.3249-8.0665,0.0249-11.975,0.9333c-2.4083,2.225-1.1832,5.8583-0.9916,8.6918c-2.925,0.4167-5.8834,0.55-8.8,0.8916
		c-3.4666,0.3667-6.075,3.3667-9.625,3.3667c-6.875,0.225-13.8083-0.9417-20.6333,0.2668c-0.1-1.8002-0.1833-3.5918-0.2667-5.3834
		c-4.3749,1.6334-8.7999,3.6417-13.5916,3.3417c-6.975-0.3417-13.925,0.4583-20.8917,0.7
		c-2.5583,0.0751-4.9917,0.8583-7.3999,1.6167c-3.6584,1.1918-7.6835,0.6666-11.2085,2.3083
		c-4.7166,2.1751-9.8248,3.3167-14.9332,4.0918c-5.2084,0.8417-10.6167-1.7584-15.6583,0.4
		c-5.225,2.3499-11.0582,1.7916-16.625,1.6917c-3.9083-0.025-7.625-1.5167-11.5166-1.6167c-4.1,0.3083-6.75,3.9583-10.3668,5.4583
		c-2.9749,0.4333-5.9498-0.425-8.9249-0.5c-4.2252-0.275-8.2666,1.2917-12.45,1.5667c-8.6417,0.6834-17.6001-1.325-26.0001,1.5084
		c-7.0916,2.1083-13.7915,6.4917-21.4583,5.8167c-5.1667-0.45-10.3584-1.0167-15.5167-0.2083
		c1.875,0.7416,3.7667,1.4417,5.6667,2.1583c-5.7917-0.0499-11.6085-0.3167-17.3668,0.35c-2.4415,0.175-4.9667,0.6667-7.3499-0.025
		c-1.1084-1.6083-1.7583-3.4749-2.8751-5.0584c-3.7333-0.7749-7.5498,0.0668-11.2916,0.3168
		c-0.3999-1.5084-0.7916-3.0084-1.1749-4.5083c-5.325-0.4917-10.675-0.4085-16.0084-0.3251
		c-15.025-0.025-30.0583,0.0584-45.0833-0.0751c-3.4584-0.2999-5.725,3.0334-9.0334,3.2585
		c-3.2917,0.2999-6.6083,0.375-9.825,1.1333c-3.4833,0.6667-7.3917,1.5-10.675-0.2333c-1.0416-1.1916-1.525-2.7249-2.2083-4.1166
		c5.8917-2.6416,12.4333-2.4416,18.725-2.9833c6.9332-0.3417,14.1499-1.4667,20.8,1.15c0.3916-2.0667,0.7999-4.1166,1.1917-6.175
		c4.6166-0.1501,9.375-0.0083,13.7333-1.8c3.4-1.425,7.05-0.1166,10.5667-0.3917c2.7749-0.7499,4.9584-2.875,7.75-3.6333
		c2.3165-0.825,4.9667-0.8749,7.075-2.2417c0.875-2.8249,0.8666-5.825,1.1833-8.7417c4.0082-0.1332,8.0249-0.2499,12.0416-0.2999
		c0.3-1.5334,0.6167-3.0667,0.9333-4.5917c0.3417,1.225,0.6918,2.4583,1.0417,3.6916c0.9917-0.0417,1.9916-0.0833,2.9999-0.125
		c-0.2999-1.0083-0.5917-2.0167-0.8832-3.025c2.4418,1.1918,4.9833,2.5584,7.8,2.3c4.5082-0.2668,9.0084-0.85,13.5333-0.6333
		c8.35,0.3584,16.6666-0.5249,24.9916-0.9916c3.7584-0.1582,7.25-1.675,10.5083-3.4417c4.9084-2.7666,10.7251-1.8833,16.1084-2.4501
		c6.275-0.6749,12.925,0.25,18.7916-2.5499c4.5834-2.0417,9.4585-3.4,14.4335-4.0833c2.7666-0.4,5.2916,1.075,7.7916,2.0166
		c2.25-1.8249,5.1333-2.2166,7.9417-2.2083c7.0917-0.0834,13.975-2.4,21.1001-2.125c5.2916,0.1833,10.5748-0.175,15.8417-0.65
		c6.6749-0.5917,13.8083,1.1001,20.025-2.15c3.4583,1.5333,6.7915,3.9001,10.7416,3.7583c6.5751-0.0332,13.1583,0.0499,19.7084-0.5
		c5.9583-0.5084,11.8833,0.6751,17.8416,0.3666c2.7668,0.0333,5.7917-0.4917,8.3083,0.975
		c2.3167,1.3333,4.7167,2.9083,7.5333,2.6584c4.3,0.3333,7.4083-3.4834,11.5917-3.6501c5.3251-0.3249,10.6499,0.3417,15.9833,0.1168
		c4.2001,0.0665,7.275-3.7833,11.525-3.4917c7.175,0.1417,14.4584-0.5167,21.5333,1.0333c3.95,0.85,8.0083,0.9083,12.0249,0.6666
		c0.3334-1.9249-0.3499-4.5917,1.3-5.9499c4.3667-1.4583,9.4501-1.3334,13.4917,1.0333c-4.125,2.05-9.725,0.7167-12.7583,4.7333
		c3.8417-0.0333,7.6749-0.25,11.5249-0.4C1424.4833,126.025,1422.1749,128.0167,1419.6499,129.675z"/>
	<path fill="#FED0B1" stroke="#FED0B1" stroke-width="0.5" d="M1600.5,866.05c-0.4083-5.5667-1.3667-11.075-1.65-16.65
		c-0.8916-4.05-1.8667-8.075-2.7-12.1334c-2.5583-12.2084-6.1667-24.2-10.8167-35.775
		c-9.5583-23.5084-22.9083-45.525-39.8667-64.4583c-19.3334-21.8167-43.0333-39.75-69.3251-52.35
		c-25.325-12.3-53.0583-19.4417-81.125-21.3333c-17.9333-1.4667-36-0.0417-53.6917,2.9916
		c-53.0583,9.25-102.075,39.0583-135.0667,81.575c-9.375,11.9083-17.275,24.925-24.05,38.4667
		c-1.0667,2.1417-1.9833,4.35-2.8167,6.5916c-7.1917,13.95-11.3,29.2417-14.8418,44.4583c-0.2333,0.9333-0.45,1.8834-0.65,2.8417
		c-2.9249,15.0667-4.4583,30.4249-4.0499,45.7833c15.0499-0.1083,30.1-0.0833,45.1499-0.05
		c15.4333,0.0667,30.875-0.275,46.3002,0.2751c19.5332,1.15,38.8749,4.4583,58.0082,8.4666
		c14.3667,2.4167,28.5502,5.7667,42.7917,8.8251c8.4167,1.0167,16.9084,1.6333,25.3917,1.275
		c7.6666-0.3,14.8334-3.2583,22.1499-5.2583c15.9417-4.4417,32.4-0.2417,48.2667,2.3334c6.0083,0.6083,12,1.4417,18.025,1.95
		c22.2583,1.3916,44.5667,0.2499,66.8333,1.025c13.675-0.6917,27.8167-0.9083,40.7584,4.275
		c8.6583,3.1833,16.45,8.225,24.5333,12.6083c0.725-7.2833,2.0416-14.5,2.5166-21.8083
		C1601.275,888.675,1601.3082,877.3334,1600.5,866.05z"/>
	
		<linearGradient id="SVGID_2_" gradientUnits="userSpaceOnUse" x1="915.6401" y1="-219.5856" x2="909.6401" y2="436.4145" gradientTransform="matrix(0.8333 0 0 -0.8333 480 1333.3333)">
		<stop  offset="0" style="stop-color:#1A1A1C"/>
		<stop  offset="0.402" style="stop-color:#2C2C2F"/>
		<stop  offset="1" style="stop-color:#4D4D52"/>
	</linearGradient>
	<path fill="url(#SVGID_2_)" stroke="#2C2C2F" stroke-width="0.5" d="M1814.1749,1022.6917c9.375-1.35,18.8667-1.6,28.3251-1.7416
		c6.85-0.1584,13.5834,1.2083,20.325,2.2333c3.8584,0.9251,8.025,1.2667,11.5166,3.3084c3.4084,2.9583,4.5251,7.6,7.1667,11.1583
		c2.0751,3.1582,5.4417,5.1499,8.9,6.4999c10.65,5.1334,22.75,4.0668,34.2084,4.7001c9.0833,0.5917,18.1832,0.625,27.2833,0.4
		c9.1416,0.275,18.9249-0.8167,27.1583,4.1083c7.4833,4.8834,14.8916,10.0667,23.3667,13.15
		c-2.3584,5.2084-7.4084,8.2084-11.3667,12.0416c-6.2167,5.9-13.0167,11.3251-20.7667,15.0751
		c-7.3333,3.5083-15.5417,4.825-23.625,4.8167c-10.8417,0-21.675-0.05-32.5167-0.025c-7.2083,0.1167-14.5582,0.3667-21.45,2.6667
		c-4.4417,1.4583-8.8082,3.2666-13.4417,4.0416c-5,0.8999-10.0917,0.45-15.125,0.7583c-5.8833,0.2917-11.3916,2.5751-17.1166,3.7167
		c-8.7251,1.9667-17.7417,1.4083-26.5668,2.5333c-11.3416,1.3083-22.2667,5.4584-33.775,5.325
		c-16.925-0.075-34.2833-0.1083-50.4916,5.425c-15.1084,6.2084-30.0834,12.7833-44.5,20.5083
		c-7.175,3.5667-13.5001,8.775-21.1417,11.3833c-4.6583,1.7417-9.6083,2.3418-14.4917,3.0835
		c-7.0166,1.0833-13.9833,4.0166-18.7916,9.3999c-4.6333,5.1167-8.8083,10.6333-13.275,15.9
		c-4.625,5.3333-6.3416,12.3667-10.05,18.2583c-2.6749,4.2916-5.4916,8.5167-7.8167,13.025
		c-2.6083,4.7417-4.7583,9.9333-8.8167,13.6749c-2.8999,2.6666-5.9917,5.1167-8.725,7.9584
		c-3.5083,3.5583-7.4249,7.1333-12.4083,8.375c-4.4917,1-9.125,0.4166-13.675,0.4501c-21.9415,0.15-43.8916,0.1083-65.8333,0.0083
		c-11.425-0.4833-22.8583-0.9417-34.225-2.2501c-8.7084-0.9916-17.4751-1.225-26.1667-2.3248
		c-7.325-0.9001-13.6416-5.2417-18.5499-10.5417c-3.4834-3.8667-8.2-6.2167-12.05-9.625c-3.0333-2.5333-5.475-6.7083-9.8584-6.7833
		c-6.0916-0.1333-11.6083,2.8833-16.9332,5.4834c-4.8083,2.525-9.7251,4.8167-14.6833,7.0332
		c-9.1,4.2084-16.0667,11.6167-23.5166,18.1167c-3.1084,2.7167-5.8834,5.7917-8.525,8.9667
		c-6.0166,7.4501-15.1917,11.1917-23.8916,14.5167c-11.5416,4.7416-23.6333,7.95-35.75,10.825
		c-17.5834,3.9333-35.6001,6.6416-52.4,13.425c-15.5333,6.325-30.2251,14.4833-45.65,21.0416
		c-7.3333,2.9916-14.2333,7.225-22.1,8.75c-5.9083,1.4-12.225,0.65-17.9333,2.9417c-5.2084,2.25-9.6,5.9417-14.4166,8.875
		c-4.9667,3.0667-11.0167,2.8833-16.525,4.2834c-12.775,3.0665-25.125,7.6083-37.6417,11.5582c-17.325,5.6-34.95,10.2583-52.2,16.1
		c-33.0667,10.5-66.675,19.175-99.8417,29.3251c-13.4833,4.125-27.0833,7.8167-40.5667,11.9083
		c-19.3083,5.2167-38.425,11.0917-57.3,17.6833c-14.0167,5.0083-28.5583,8.7749-41.7833,15.7499
		c-7.7583,3.6918-15.2333,7.9418-22.475,12.55c-5.0334,3.2666-9.525,7.3584-14.9167,10.0751
		c-6.6083,3.3999-12.2333,8.2999-18.275,12.55c-3.2667,2.2999-6.4584,4.7749-8.9917,7.8999
		c-5.2833,4.4333-10.5833,8.9834-16.725,12.2084c-7.0167,3.6582-14.1417,7.1083-21.3667,10.35
		c-7.9916,3.6-15.5167,8.8667-24.475,9.6917c-8.7,0.7083-17.3834-0.7999-26.0667-1.1167c-9.825-0.2999-19.725-0.1749-29.4417,1.425
		c-14.7667,2.4833-29.625,5.15-43.7,10.4249c-16.475,6.675-31.0333,17.0001-45.775,26.75c-6.1,4.1001-11.9084,8.6084-17.925,12.8167
		c-1.3333,0.7917-2.7,1.5251-4.0167,2.3668v-223.3917c5.5583-6.5583,12.65-11.5416,19.1667-17.0667
		c10.4084-8.2,20.8083-17.0084,33.45-21.55c7.375-2.8417,15.2667-4.1,23.1417-4.425c8.8666-0.4083,17.775-0.9583,26.6333-0.1499
		c4.5667,1.9,5.15,7.275,8.025,10.725c1.95,2.3333,5.3167,2.275,7.9916,1.4667c8.325-2.3334,14.8583-8.4667,22.9333-11.3833
		c5.8417-2.45,12.3417-2.6167,18.55-1.825c5.3167,4.3333,7.875,12.4082,15.3083,13.6915c7.9167,1.5001,16.125,1.4333,24.0917,0.3
		c13.4-2.2417,26.6583-5.3,40.0833-7.45c9.2584-1.2417,18.5833-1.7833,27.9167-2.2667c21.075-1.6917,42.1667-3.5,63.075-6.7417
		c13.2833-2.4,26.7333-4.7333,39.275-9.9083c9.2501-3.6832,18.6251-7.4417,26.7333-13.3167
		c8.775-6.2833,13.025-16.5667,18.225-25.6333c4.6166-7.1918,9.0416-14.9084,16.05-20.0751c5.7832-4.3916,13.4333-5.35,20.4583-4.35
		c13.0417,1.9083,26.175,3.775,39.3834,3.65c19.4916,1.8667,39.125,0.9166,58.6749,1.225
		c18.1334,0.125,36.0668-3.5416,53.425-8.5499c7.5583-2.2417,15.4166-3.2084,23.2749-3.4834
		c22.0167-1.0667,43.9917-2.65,66.0001-3.7749c6.7999-0.1835,13.6083,0.1,20.3999-0.4584c8.9584,0.3417,17.925,0.1832,26.9,0.1832
		c13.3417-0.0416,26.65,1.2334,39.9917,1.4667c8.8083,0.2084,18.025,0.8334,26.3417-2.6832
		c7.9333-3.4418,15.375-9.1417,18.8916-17.2583c1.4917-2.9834,2.6917-6.3917,5.525-8.3667
		c6.7167-4.3168,15.85-0.6334,22.2084-5.6417c4.0333-3.9083,7.5166-8.35,11.475-12.325c6.9667-7.0834,14-14.1084,20.975-21.175
		c6.9-6.5416,12.3167-14.6167,20.2-20.1083c5.8751-3.1167,11.9501-6.3,18.6584-7.0751c10.0333-0.3916,20.075-0.3167,30.1083-0.3167
		c7.0834,0.7584,14.15,1.75,21.2083,2.8c10.8168,1.6917,21.8,2.075,32.7417,2.0332c11.4417-0.1166,23.1084,1.0333,34.2917-2.0833
		c6.9917-1.575,13.025-5.5834,18.8917-9.5083c4.25-2.8834,7.7666-6.6583,11.4749-10.175c5.1-5.0917,10.4918-9.875,15.675-14.875
		c2.9833-2.6917,5.4583-5.8667,8.3667-8.625c1.0499-1.35,2.8083-0.2833,4.05,0.2084c4.2583,2.2416,8.2417,5.1833,13.0582,6.1917
		c6.8833,1.6833,14.025,2.0083,21.0167,3.1333c22.0751,2.8417,44.1583,7.4333,66.525,6.1167c4.9083-0.2333,7.35-5.0917,9.8334-8.625
		c6.5999-10.6416,16.1832-19.0083,26.325-26.1749c4.4082-3.0334,9.25-5.3668,14.0416-7.7334
		c6.4333-3.1667,12.8417-6.3917,19.3083-9.5084c14.0083-6.3416,28.2666-12.3333,43.1917-16.1665
		C1800.3833,1025.3417,1807.2749,1024,1814.1749,1022.6917z"/>
	
		<linearGradient id="SVGID_3_" gradientUnits="userSpaceOnUse" x1="1524.6556" y1="258.6326" x2="1467.7268" y2="581.4919" gradientTransform="matrix(0.8333 0 0 -0.8333 480 1333.3333)">
		<stop  offset="0" style="stop-color:#887678"/>
		<stop  offset="0.4032" style="stop-color:#686069"/>
		<stop  offset="0.7679" style="stop-color:#51515F"/>
		<stop  offset="1" style="stop-color:#494C5B"/>
	</linearGradient>
	<path fill="url(#SVGID_3_)" stroke="#6D6068" stroke-width="0.5" d="M2037.4165,803.2416c-5.9,3.85-12.9667,6.2084-17.4666,11.9167
		c-5.4248,6.7083-10.1001,14.0834-16.575,19.8917c-4.0582,3.4833-6.0834,8.95-10.8584,11.6334
		c-3.7,2.1917-7.5834,4.0416-11.3248,6.15c-11.3751,6.2333-22.4335,13.2584-34.6667,17.7334
		c-9.4751,2.0416-20.7251,3.1166-28.875-3.1834c-4.6-3.2667-6.8418-8.6833-10.9-12.45c-1.5-1.4917-3.7084-1.6917-5.6833-1.3917
		c-6.775,0.7-12.8834,3.9083-18.9167,6.8167c-11.0916,6.5667-22.325,12.875-33.65,19.0083
		c-9.1416,5.5417-18.1,11.3917-27.2833,16.8666c-6.0166,3.4584-11.3916,8.0167-15.6083,13.525
		c-3.5166,4.3417-4.9667,9.8667-8.1,14.4333c-2.725,3.9916-7.8417,4.8416-11.9833,6.6667
		c-0.9918,0.3416-1.9751,0.6749-2.9333,1.0167c-11.6167,4.7333-23.7417,8.1417-36.0917,10.325
		c-9.5,1.4083-19.0084,2.825-28.525,4.15c-7.5917,1.1083-15.25,1.675-22.8,3.0667c-5.8999,1.0833-11.7333,2.5249-17.4833,4.1916
		c-11.3834,3.3-22.8583,6.25-34.4333,8.7667c-7.3667,1.6168-15.25,1.7834-21.9833,5.525
		c-6.6251,3.8084-14.6666,3.0667-21.8834,1.7833c-8.4583-2.0667-16.9833-3.9166-25.375-6.2333
		c-5.7334-1.6833-12.5416-3.5834-17.8833,0.1833c-11.3334,8-22.6749,16.1083-35,22.525c-5.2,2.6417-8.9166,7.2333-12.5083,11.675
		c-6.5083,7.8917-13.8,15.1167-20.0583,23.2167c-4.1334,5.2416-6.2667,11.7917-10.7167,16.8166
		c-3.5167,4.0167-8.1166,6.8251-12.4166,9.9c-10.0668,4.7584-19.425,11.8917-30.7917,13.1833
		c-4.6,0.5917-9.2832,0.9917-13.6582,2.6167c-7.0334,2.5499-13.4501,6.4834-19.7251,10.4833
		c-3.65,2.475-7.1666,5.1417-10.7417,7.7167c-11.3333,8.0333-22.6666,16.8834-29.8167,29.0416
		c14.5,1.9335,28.2917,7.3,42.7334,9.425c10.0333-0.3916,20.075-0.3167,30.1083-0.3167c7.0834,0.7584,14.15,1.75,21.2083,2.8
		c10.8168,1.6917,21.8,2.075,32.7417,2.0332c11.4417-0.1166,23.1084,1.0333,34.2917-2.0833
		c6.9917-1.575,13.025-5.5834,18.8917-9.5083c4.25-2.8834,7.7666-6.6583,11.4749-10.175c5.1-5.0917,10.4918-9.875,15.675-14.875
		c2.9833-2.6917,5.4583-5.8667,8.3667-8.625c1.0499-1.35,2.8083-0.2833,4.05,0.2084c4.2583,2.2416,8.2417,5.1833,13.0582,6.1917
		c6.8833,1.6833,14.025,2.0083,21.0167,3.1333c22.0751,2.8417,44.1583,7.4333,66.525,6.1167c4.9083-0.2333,7.35-5.0917,9.8334-8.625
		c6.5999-10.6416,16.1832-19.0083,26.325-26.1749c4.4082-3.0334,9.25-5.3668,14.0416-7.7334
		c6.4333-3.1667,12.8417-6.3917,19.3083-9.5084c14.0083-6.3416,28.2666-12.3333,43.1917-16.1665
		c6.8417-1.5834,13.7333-2.925,20.6333-4.2334c9.375-1.35,18.8667-1.6,28.3251-1.7416c6.85-0.1584,13.5834,1.2083,20.325,2.2333
		c3.8584,0.9251,8.025,1.2667,11.5166,3.3084c3.4084,2.9583,4.5251,7.6,7.1667,11.1583c2.0751,3.1582,5.4417,5.1499,8.9,6.4999
		c10.65,5.1334,22.75,4.0668,34.2084,4.7001c9.0833,0.5917,18.1831,0.625,27.2833,0.4c9.1416,0.275,18.9249-0.8167,27.1583,4.1083
		c7.4834,4.8834,14.8916,10.0667,23.3667,13.15c6.975,2.3667,14.45,3.0583,21.7833,2.8083c8.6082-0.475,17.75-4.4333,21.8583-12.4
		c2.2166-5.8417,1.9583-12.2583,2.0083-18.4083c0.2666-3.4583,0.0667-7.1833,1.7-10.35c2.1084-1.8251,5.175-1.7334,7.8252-1.9833
		c7.4666-0.1334,15.075-0.6918,22.3999,1.1832v-26.5916v-20v-36.25v-22.5083V889.4V782.3
		C2065.6333,788.8917,2050.825,794.75,2037.4165,803.2416z"/>
	
		<linearGradient id="SVGID_4_" gradientUnits="userSpaceOnUse" x1="641.7977" y1="27.5633" x2="588.7741" y2="268.4099" gradientTransform="matrix(0.8333 0 0 -0.8333 480 1333.3333)">
		<stop  offset="0" style="stop-color:#887678"/>
		<stop  offset="0.2395" style="stop-color:#6E656C"/>
		<stop  offset="0.4964" style="stop-color:#595763"/>
		<stop  offset="0.7513" style="stop-color:#4D4F5D"/>
		<stop  offset="1" style="stop-color:#494C5B"/>
	</linearGradient>
	<path fill="url(#SVGID_4_)" stroke="#6D6068" stroke-width="0.5" d="M1360.7,1110.8082
		c-13.225-1.6917-26.5916-1.0833-39.875-0.7166c-13.2417,0.2167-26.5,1.1499-39.5249,3.6416
		c-11.3584,2.2251-22.7,4.5-34.0417,6.7917c-9.2583,1.8666-18.6416,3.1083-27.7666,5.6
		c-7.3416,1.9916-14.7417,3.7833-22.1917,5.2999c-10.3916,1.8418-20.875,3.1083-31.3251,4.6084
		c-8.0665,1.1833-16.25,0.8082-24.3667,0.6c-6.0166-0.1583-12.0249-1.3417-17.5-3.8833c-7.25-2.825-13.0665-8.025-19.0082-12.85
		c-4.8167-3.3251-9.7001-7.6833-15.8916-7.7084c-7.3834-0.125-14.775,0.2167-22.1666-0.0917
		c-3.1417,0.4917-6.3167,0.7584-9.4333,1.3834c-6.575,1.1915-11.4917,6.3583-17.9584,7.8666
		c-9.3167,2.3334-19.1166,0.3083-28.4749,2.4333c-4.15,1.1083-7.375,4.1166-10.6832,6.7c-3.8667,3.1833-8.0168,6-12.2417,8.6917
		c-6.8,5.0417-13.8083,9.9-19.7334,16c-5.4333,5.55-11.3751,11.1833-19.0417,13.3334c-4.7666,0.95-9.6583,0.3917-14.475,0.4917
		c-20.0167-0.25-40.025,0.6583-60.0416,0.525c-7.525,0.2166-16.0084-0.225-22.1334,4.9583c-6.2083,5.2583-13.8333,8.3-20.75,12.475
		c-3.6083,2.1084-7.4,3.8667-11.2167,5.5834c-7.3833,3.3167-13.3749,8.9166-20.2833,13.0333
		c-5.3333,3.1416-10.9083,6.425-17.2083,6.9917c-12.0167,1.0583-23.9417-1.3417-35.8917-2.1c-6.95-0.15-14.1833-0.4-20.775,2.1333
		c-5.175,2.35-9.6333,6-14.7916,8.3916c-7.1583,3.4584-14.5251,6.475-21.5333,10.25c-7.7167,4.025-15.65,7.675-23.1167,12.175
		c-0.8833,0.5917-1.7583,1.2001-2.6333,1.8334c-13.9917,9.9166-28.325,19.3916-41.6917,30.1666
		c-7.45,5.9333-15.3417,11.2583-23.2167,16.6084c-5.9166,2.8333-11.6084,6.1333-17.325,9.35c4.5667,1.9,5.15,7.275,8.025,10.725
		c1.95,2.3333,5.3167,2.275,7.9917,1.4667c8.325-2.3334,14.8583-8.4667,22.9333-11.3833c5.8417-2.45,12.3417-2.6167,18.55-1.825
		c5.3167,4.3333,7.8749,12.4082,15.3083,13.6915c7.9167,1.5001,16.125,1.4333,24.0917,0.3c13.4-2.2417,26.6583-5.3,40.0834-7.45
		c9.2583-1.2417,18.5833-1.7833,27.9166-2.2667c21.075-1.6917,42.1667-3.5,63.075-6.7417c13.2833-2.4,26.7333-4.7333,39.275-9.9083
		c9.25-3.6832,18.625-7.4417,26.7333-13.3167c8.775-6.2833,13.025-16.5667,18.225-25.6333
		c4.6166-7.1918,9.0416-14.9084,16.05-20.0751c5.7833-4.3916,13.4333-5.35,20.4583-4.35c13.0417,1.9083,26.175,3.775,39.3834,3.65
		c19.4916,1.8667,39.125,0.9166,58.675,1.225c18.1333,0.125,36.0667-3.5416,53.4249-8.5499
		c7.5582-2.2417,15.4167-3.2084,23.2751-3.4834c22.0166-1.0667,43.9916-2.65,66-3.7749c6.7999-0.1835,13.6084,0.1,20.4-0.4584
		c8.9583,0.3417,17.9249,0.1832,26.9,0.1832c13.3417-0.0416,26.6499,1.2334,39.9916,1.4667
		c8.8085,0.2084,18.025,0.8334,26.3417-2.6832c7.9333-3.4418,15.3751-9.1417,18.8916-17.2583
		c1.4917-2.9834,2.6917-6.3917,5.525-8.3667c6.7166-4.3168,15.85-0.6334,22.2084-5.6417c4.0333-3.9083,7.5166-8.35,11.475-12.325
		c6.9668-7.0834,14-14.1084,20.9751-21.175c6.8999-6.5416,12.3167-14.6167,20.2-20.1083c5.875-3.1167,11.95-6.3,18.6583-7.0751
		C1388.9917,1118.1083,1375.2,1112.7417,1360.7,1110.8082z"/>
	
		<radialGradient id="SVGID_5_" cx="1918.5425" cy="-316.0426" r="1773.2241" gradientTransform="matrix(0.8333 0 0 -0.8333 480 1333.3333)" gradientUnits="userSpaceOnUse">
		<stop  offset="0" style="stop-color:#302F34"/>
		<stop  offset="0.1881" style="stop-color:#1F1E21"/>
		<stop  offset="0.4431" style="stop-color:#0E0D0F"/>
		<stop  offset="0.7088" style="stop-color:#030304"/>
		<stop  offset="1" style="stop-color:#000000"/>
	</radialGradient>
	<path fill="url(#SVGID_5_)" stroke="#302F34" stroke-width="0.5" d="M2060.8167,1275.975c-3.6833-0.2833-7.3,0.8083-10.425,2.6833
		c-6.7584,3.9249-13.95,7.0583-20.65,11.0833c-6.5165,4.1501-7.45,12.7917-13.0416,17.8085
		c-5.3165,4.6915-11.4249,8.5249-18.0334,11.1166c-6.0583,2.275-12.0499,5.525-18.6832,5.475c-2.875,0.1-5.225-1.7416-7.2916-3.4666
		c-5.0084-4.2668-10.2417-8.3417-15.9917-11.5502c-5.4417-3.0499-11.9584-4.3333-18.0916-3.0166
		c-4.0084,0.9417-7.1835,3.8-9.9667,6.675c-5.8419,6.1333-9.425,13.9166-14.2167,20.8083
		c-7.3501,10.7333-15.2751,21.2916-25.3751,29.6166c-7.7499,6.9-17.3333,11.1333-26.2666,16.2168
		c-6.0083,3.2-11.9834,6.4417-17.9834,9.6416c-5.4249,2.9833-11.375,4.8334-16.8083,7.7999
		c-4.5667,0.9167-9.7833,1.875-13.8417-1.0499c-7.6333-5.2084-14.9916-10.9083-23.25-15.125
		c-5.2749-2.7084-10.2916-5.8917-15.6166-8.4917c-7.875-3.8667-15.5834-8.1-22.9-12.9417c-4.5834-2.9417-9.175-6.725-14.8833-6.8583
		c-3.2667-0.025-7.3583,0.2582-9.1583,3.4417c-2.5834,4.25-4.8,8.8667-8.625,12.2c-4.8417,4.3167-9.7501,8.6083-13.7168,13.7833
		c-3.5916,4.7167-8.6915,8.2917-14.5249,9.5333c-3.9,1.0834-8.85,0.7916-11.275,4.65c-6.6,9.425-16.0166,16.6583-21.3999,26.9584
		c-4.1417,8.0167-10.6918,14.3417-15.8751,21.6333c-4.0167,5.3916-7.5583,11.175-10.1,17.4167
		c-2.2,4.95-3.325,10.3167-5.625,15.2332c-1.0249,2.2334-2.85,4.5001-5.5333,4.5334c-5.9166,0.5333-10.775-3.3917-15.625-6.1417
		c-6.5416-3.9083-14.0249-5.8583-21.5249-6.8334c-6.675-0.7999-12.9418-3.3833-18.8834-6.4082
		c-5.35-3.2001-10.95-6.65-14.2583-12.1084c-5.025-8.2916-5.5333-18.5083-10.8417-26.6583
		c-3.8334-5.7999-9.2667-10.3501-15.025-14.1333c-7.8501-5.05-15.6333-10.4917-21.675-17.6833
		c-4.6499-5.5834-10.4417-10-15.8333-14.7999c-4.425-3.9335-9.2667-7.3168-13.8916-10.9918
		c-8.0167-4.35-15.525-9.9332-24.4751-12.2583c-10.175-2.9584-20.8583-2.0667-31.3-2.1c-6.3416,0.1084-12.6416-0.9083-18.975-0.6167
		c-7.5917,0.3501-15.1333-0.7916-22.7084-1.1c-4.3916-0.1833-8.7333-0.9083-12.9833-2.0083
		c-7.0416-1.7334-14.8833-2.425-21.625,0.7417c-5.3,2.5833-7.1,8.6166-10.2084,13.1832c-3.8582,6.65-9.6666,12.25-11.85,19.7833
		c-1.0083,3.2167-2.3167,6.3584-4.0667,9.2584c-3.3832,5.5834-7.7666,10.5583-12.6584,14.8667
		c-5.3333,4.7-12.825,5.1333-18.7666,8.7167c-3.9667,2.3083-6.7999,5.9999-9.7916,9.3833c-4,4.575-8.7583,8.4083-12.8334,12.9083
		c-5.1666,7.6749-11.0083,15.3334-13.025,24.5583c-1.225,5.0416-2.2417,10.35-5.35,14.6499
		c-4.5917,6.6167-12.3416,10.7334-20.3582,11.1167c-9.3834,0.4667-18.7833-0.1083-28.15-0.575
		c-8.2167-0.3833-16.1582-3.1917-23.0917-7.5416c-2.7584-1.9834-5.5167-3.9584-8.1918-6.0417
		c-4.1499-3.1-7.5083-7.225-12.1166-9.6917c-8.4083-0.3417-17.15-0.3917-24.9333-4.0416
		c-8.4583-3.9667-16.1333-9.3833-24.1416-14.1417c-7.0083-2.8416-13.6666-6.4584-20.625-9.4083
		c-7.0667-3.125-14.9667-3.8167-21.875-7.3584c-6.6-2.7416-12.8334-7.8416-20.3667-7.0833c-7.6666,0.8583-14.65,4.4166-22.0083,6.5
		c-9.1,3.475-18.8833,5.1749-27.4583,9.9417c-5.9333,3.2917-12.2917,5.7667-18.0083,9.4584
		c-5.65,3.6167-11.7334,6.5083-17.3584,10.1583c-5.5583,3.5333-11.1917,7.0083-17.325,9.475
		c-3.1417,2.1417-6.3667,4.1583-9.725,5.9584c-6.4417,3.3999-12.475,7.4916-18.5833,11.45
		c-11.575,7.9833-24.925,13.0668-38.5084,16.4584c-10.3083,2.0833-20.6166,4.2333-30.8333,6.7416
		c-16.175,3.6417-31.7584,9.3334-47.6417,14.0001c-15.3917,4.2333-30.875,8.5416-45.325,15.4583
		c-7.7417,3.5167-15.4,7.25-22.8417,11.375c-5.75,3.3167-11.9167,5.825-17.825,8.8333c-5.975,3.0001-12.375,4.9918-18.675,7.1752
		c-6.6417,2.475-12.7917,6.0833-19.1917,9.1083c-7.8083,3.6917-13.6917,10.1667-20.225,15.6333
		c-4.1749,3.4333-7.9166,7.3334-11.8417,11.05h283.6583h354.8333h351.4333h128.6665H2080v-31.2v-61.2251v-56.9417v-55.9917V1278.65
		C2073.6333,1277.55,2067.2583,1276.3917,2060.8167,1275.975z"/>
	
		<linearGradient id="SVGID_6_" gradientUnits="userSpaceOnUse" x1="960" y1="-322" x2="960" y2="220.2361" gradientTransform="matrix(0.8333 0 0 -0.8333 480 1333.3333)">
		<stop  offset="0" style="stop-color:#434347"/>
		<stop  offset="0.2843" style="stop-color:#404044"/>
		<stop  offset="0.5034" style="stop-color:#37373A"/>
		<stop  offset="0.7009" style="stop-color:#27272A"/>
		<stop  offset="0.8845" style="stop-color:#121213"/>
		<stop  offset="1" style="stop-color:#000000"/>
	</linearGradient>
	<path fill="url(#SVGID_6_)" stroke="#2C2C2F" stroke-width="0.5" d="M2057.6001,1026.175
		c-2.6501,0.2499-5.7168,0.1582-7.8252,1.9833c-1.6333,3.1666-1.4333,6.8917-1.7,10.35c-0.05,6.15,0.2083,12.5667-2.0083,18.4083
		c-4.1083,7.9667-13.2501,11.925-21.8583,12.4c-7.3334,0.25-14.8083-0.4417-21.7833-2.8083
		c-2.3584,5.2084-7.4084,8.2084-11.3667,12.0416c-6.2167,5.9-13.0168,11.3251-20.7666,15.0751
		c-7.3334,3.5083-15.5419,4.825-23.6251,4.8167c-10.8417,0-21.675-0.05-32.5167-0.025c-7.2083,0.1167-14.5582,0.3667-21.45,2.6667
		c-4.4417,1.4583-8.8082,3.2666-13.4417,4.0416c-5,0.8999-10.0917,0.45-15.125,0.7583c-5.8833,0.2917-11.3916,2.5751-17.1166,3.7167
		c-8.7251,1.9667-17.7417,1.4083-26.5668,2.5333c-11.3416,1.3083-22.2667,5.4584-33.775,5.325
		c-16.925-0.075-34.2833-0.1083-50.4916,5.425c-15.1084,6.2084-30.0834,12.7833-44.5,20.5083
		c-7.175,3.5667-13.5001,8.775-21.1417,11.3833c-4.6583,1.7417-9.6083,2.3418-14.4917,3.0835
		c-7.0166,1.0833-13.9833,4.0166-18.7916,9.3999c-4.6333,5.1167-8.8083,10.6333-13.275,15.9
		c-4.625,5.3333-6.3416,12.3667-10.05,18.2583c-2.6749,4.2916-5.4916,8.5167-7.8167,13.025
		c-2.6083,4.7417-4.7583,9.9333-8.8167,13.6749c-2.8999,2.6666-5.9917,5.1167-8.725,7.9584
		c-3.5083,3.5583-7.4249,7.1333-12.4083,8.375c-4.4917,1-9.125,0.4166-13.675,0.4501c-21.9415,0.15-43.8916,0.1083-65.8333,0.0083
		c-11.425-0.4833-22.8583-0.9417-34.225-2.2501c-8.7084-0.9916-17.4751-1.225-26.1667-2.3248
		c-7.325-0.9001-13.6416-5.2417-18.5499-10.5417c-3.4834-3.8667-8.2-6.2167-12.05-9.625c-3.0333-2.5333-5.475-6.7083-9.8584-6.7833
		c-6.0916-0.1333-11.6083,2.8833-16.9332,5.4834c-4.8083,2.525-9.7251,4.8167-14.6833,7.0332
		c-9.1,4.2084-16.0667,11.6167-23.5166,18.1167c-3.1084,2.7167-5.8834,5.7917-8.525,8.9667
		c-6.0167,7.4501-15.1918,11.1917-23.8918,14.5167c-11.5416,4.7416-23.6333,7.95-35.7499,10.825
		c-17.5835,3.9333-35.6001,6.6416-52.4,13.425c-15.5333,6.325-30.225,14.4833-45.65,21.0416
		c-7.3333,2.9916-14.2333,7.225-22.0999,8.75c-5.9084,1.4-12.2252,0.65-17.9333,2.9417c-5.2084,2.25-9.6,5.9417-14.4166,8.875
		c-4.9667,3.0667-11.0167,2.8833-16.5251,4.2834c-12.775,3.0665-25.1249,7.6083-37.6416,11.5582
		c-17.325,5.6-34.95,10.2583-52.2,16.1c-33.0667,10.5-66.675,19.175-99.8417,29.3251c-13.4833,4.125-27.0833,7.8167-40.5667,11.9083
		c-19.3083,5.2167-38.425,11.0917-57.3,17.6833c-14.0167,5.0083-28.5583,8.7749-41.7833,15.7499
		c-7.7583,3.6918-15.2333,7.9418-22.475,12.55c-5.0334,3.2666-9.525,7.3584-14.9167,10.0751
		c-6.6083,3.3999-12.2333,8.2999-18.275,12.55c-3.2667,2.2999-6.4584,4.7749-8.9917,7.8999
		c-5.2833,4.4333-10.5833,8.9834-16.725,12.2084c-7.0167,3.6582-14.1417,7.1083-21.3667,10.35
		c-7.9916,3.6-15.5167,8.8667-24.475,9.6917c-8.7,0.7083-17.3834-0.7999-26.0667-1.1167c-9.825-0.2999-19.725-0.1749-29.4417,1.425
		c-14.7667,2.4833-29.625,5.15-43.7,10.4249c-16.475,6.675-31.0333,17.0001-45.775,26.75c-6.1,4.1001-11.9084,8.6084-17.925,12.8167
		c-1.3333,0.7917-2.7,1.5251-4.0167,2.3668V1600h67.8333h88.4333c3.925-3.7167,7.6666-7.6167,11.8417-11.05
		c6.5333-5.4666,12.4166-11.9417,20.225-15.6333c6.4-3.025,12.55-6.6333,19.1917-9.1083c6.3-2.1833,12.7-4.175,18.675-7.1752
		c5.9083-3.0083,12.075-5.5166,17.825-8.8333c7.4417-4.125,15.1-7.8583,22.8416-11.375c14.45-6.9166,29.9333-11.225,45.325-15.4583
		c15.8834-4.6667,31.4667-10.3584,47.6417-14.0001c10.2167-2.5083,20.525-4.6583,30.8333-6.7416
		c13.5833-3.3916,26.9333-8.4751,38.5084-16.4584c6.1083-3.9584,12.1417-8.05,18.5833-11.45c3.3584-1.8,6.5834-3.8167,9.725-5.9584
		c6.1334-2.4667,11.7667-5.9417,17.325-9.475c5.625-3.65,11.7083-6.5416,17.3583-10.1583
		c5.7167-3.6917,12.0751-6.1666,18.0083-9.4584c8.575-4.7667,18.3584-6.4667,27.4584-9.9417
		c7.3583-2.0834,14.3416-5.6417,22.0082-6.5c7.5333-0.7583,13.7667,4.3417,20.3667,7.0833
		c6.9083,3.5417,14.8083,4.2334,21.875,7.3584c6.9584,2.95,13.6167,6.5668,20.625,9.4083
		c8.0083,4.7584,15.6835,10.175,24.1417,14.1417c7.7833,3.6499,16.525,3.7,24.9332,4.0416
		c4.6083,2.4667,7.9666,6.5917,12.1166,9.6917c2.6752,2.0834,5.4333,4.0583,8.1918,6.0417c6.9335,4.35,14.875,7.1583,23.0917,7.5416
		c9.3667,0.4667,18.7667,1.0416,28.15,0.575c8.0167-0.3833,15.7666-4.5,20.3583-11.1167c3.1083-4.2999,4.125-9.6083,5.35-14.6499
		c2.0166-9.225,7.8584-16.8834,13.025-24.5583c4.075-4.5,8.8334-8.3334,12.8334-12.9083c2.9916-3.3834,5.825-7.075,9.7916-9.3833
		c5.9417-3.5834,13.4333-4.0167,18.7666-8.7167c4.8917-4.3083,9.275-9.2833,12.6584-14.8667c1.7499-2.9,3.0582-6.0417,4.0667-9.2584
		c2.1833-7.5333,7.9917-13.1333,11.85-19.7833c3.1084-4.5667,4.9083-10.6,10.2084-13.1832
		c6.7417-3.1667,14.5834-2.4751,21.625-0.7417c4.25,1.1,8.5917,1.825,12.9833,2.0083c7.5751,0.3083,15.1167,1.4501,22.7084,1.1
		c6.3334-0.2916,12.6334,0.7251,18.975,0.6167c10.4418,0.0333,21.125-0.8584,31.3,2.1c8.9501,2.3251,16.4584,7.9083,24.4751,12.2583
		c4.6249,3.675,9.4666,7.0583,13.8916,10.9918c5.3916,4.7999,11.1833,9.2166,15.8333,14.7999
		c6.0417,7.1917,13.825,12.6333,21.675,17.6833c5.7583,3.7832,11.1917,8.3334,15.025,14.1333
		c5.3083,8.15,5.8167,18.3667,10.8417,26.6583c3.3083,5.4584,8.9083,8.9083,14.2583,12.1084
		c5.9417,3.0249,12.2084,5.6083,18.8834,6.4082c7.5,0.9751,14.9833,2.925,21.5249,6.8334c4.85,2.75,9.7084,6.675,15.625,6.1417
		c2.6833-0.0333,4.5084-2.3,5.5333-4.5334c2.3-4.9165,3.425-10.2832,5.625-15.2332c2.5416-6.2417,6.0833-12.0251,10.1-17.4167
		c5.1833-7.2916,11.7334-13.6166,15.8751-21.6333c5.3833-10.3,14.7999-17.5333,21.3999-26.9584
		c2.425-3.8584,7.375-3.5667,11.275-4.65c5.8334-1.2416,10.9333-4.8167,14.5249-9.5333c3.9667-5.175,8.8751-9.4667,13.7168-13.7833
		c3.825-3.3333,6.0416-7.95,8.625-12.2c1.8-3.1835,5.8916-3.4667,9.1583-3.4417c5.7083,0.1333,10.2999,3.9166,14.8833,6.8583
		c7.3167,4.8417,15.025,9.075,22.9,12.9417c5.325,2.6,10.3417,5.7833,15.6166,8.4917c8.2584,4.2167,15.6167,9.9166,23.25,15.125
		c4.0583,2.9249,9.275,1.9667,13.8417,1.0499c5.4333-2.9666,11.3834-4.8167,16.8083-7.7999c6-3.2,11.9751-6.4417,17.9834-9.6416
		c8.9333-5.0835,18.5167-9.3168,26.2666-16.2168c10.1-8.325,18.025-18.8833,25.3751-29.6166
		c4.7916-6.8917,8.3748-14.675,14.2167-20.8083c2.7832-2.875,5.9583-5.7334,9.9667-6.675
		c6.1332-1.3167,12.6499-0.0333,18.0916,3.0166c5.75,3.2085,10.9833,7.2833,15.9917,11.5502
		c2.0667,1.725,4.4166,3.5665,7.2916,3.4666c6.6333,0.05,12.6249-3.2,18.6832-5.475c6.6085-2.5917,12.7169-6.425,18.0334-11.1166
		c5.5917-5.0167,6.5251-13.6583,13.0416-17.8085c6.7001-4.0249,13.8916-7.1583,20.65-11.0833
		c3.125-1.875,6.7417-2.9667,10.425-2.6833c6.4417,0.4167,12.8167,1.5751,19.1833,2.675v-47.35v-30.7417v-84.5167v-88.6833
		C2072.675,1025.4833,2065.0667,1026.0416,2057.6001,1026.175z"/>
	
		<linearGradient id="SVGID_7_" gradientUnits="userSpaceOnUse" x1="-6.788721e-006" y1="510.8539" x2="1458.2098" y2="510.8539" gradientTransform="matrix(0.8333 0 0 -0.8333 480 1333.3333)">
		<stop  offset="0" style="stop-color:#494C5B"/>
		<stop  offset="0.2032" style="stop-color:#5C5963"/>
		<stop  offset="0.612" style="stop-color:#8C7A78"/>
		<stop  offset="1" style="stop-color:#C09D8F"/>
	</linearGradient>
	<path fill="url(#SVGID_7_)" stroke="#545360" stroke-width="0.5" d="M1690.7083,948.8333c-8.8417-2.2917-17.2167-6.7-26.4999-7.15
		c-11.6501-0.4584-23.5167-1.6417-34.3667-6.2001c-5.675-1.4333-11.1167-3.6-16.6666-5.4167
		c-5.0835-2.6917-10.2001-5.3167-15.1167-8.2833c-8.0834-4.3834-15.875-9.425-24.5334-12.6083
		c-12.9417-5.1833-27.0833-4.9666-40.7583-4.275c-22.2666-0.775-44.575,0.3666-66.8333-1.025
		c-6.025-0.5083-12.0167-1.3417-18.025-1.95c-15.8667-2.5751-32.3251-6.775-48.2667-2.3334c-7.3167,2-14.4834,4.9583-22.15,5.2582
		c-8.4833,0.3584-16.975-0.2582-25.3916-1.2749c-14.2416-3.0583-28.425-6.4084-42.7917-8.8251
		c-19.1332-4.0083-38.4749-7.3166-58.0082-8.4666c-15.4249-0.55-30.8666-0.2083-46.3-0.275
		c-15.0502-0.0333-30.1-0.0583-45.1499,0.05c-3.9167-0.0084-7.8168,0.1833-11.7252,0.4166
		c-9.4666,0.475-18.9249,1.2333-28.3333,2.4084c-3.9917,0.3583-7.9751,0.8749-11.9834,0.9666
		c-9.9083,1.9167-20.0332,1.2335-30.0498,1.0168c-10.0417-0.7333-20.025-2.8-29.3168-6.7334
		c-6.9917-2.95-13.7167-6.4999-20.5-9.8834c-2.2917-1.2333-4.5084-2.5916-6.8-3.8083c-17.8583-8.35-35.3834-17.3749-52.7-26.7917
		c-5.3167-2.8833-10.625-5.7916-15.725-9.0416c-6.925-3.6833-13.675-7.7001-20.8-10.9834
		c-10.7666-6.0999-22.1583-11.0917-33.9083-14.95c-13.5833-4.5916-27.725-8.4084-42.175-7.9833
		c-10.65-0.3334-21.8333,0.5667-31.8083-3.8917c-11.0167-4.2749-18.025-14.625-28.4417-19.8917
		c-2.2167-1.15-4.4916-2.1667-6.725-3.2667c-7.1917-3.4667-13.575-8.35-20.7417-11.8666c-7.4667-3.75-15.3917-7.4-23.9-7.475
		c-7.7917-0.0751-15.7917,0.45-23.05,3.5334c-5.8834,2.2584-10.45,6.7249-15.4167,10.4333c-5.775,4.4083-11.6583,8.8751-16.05,14.75
		c-3.4667,4.4583-5.0917,10.1417-9.1167,14.2c-3.85,3.9501-8.2333,7.3417-12.0083,11.3667c-3.25,3.1166-5.9416,6.8833-9.7416,9.4
		c-5.7167,3.5833-12.3418,5.275-18.3334,8.3c-9.5,4.7667-19.1833,9.3334-29.4417,12.2084c-9.8333,2.1-19.9167,0.2333-29.625-1.65
		c-10.975-2.1917-22.3417-0.0083-33.2751-2.5083c-7.3666-1.8334-14.6083-4.5417-22.25-4.925
		c-6.6833-0.3667-13.375-0.0417-20.0583,0.175c-9.0833,0.55-18.55,2.4917-25.85,8.2501v180.4833v28.363
		c15.3382-2.5857,16.6959,3.7682,32.3987,0.9493c15.9049-2.8551,14.727-9.4169,30.6319-12.272
		c15.9028-2.8547,17.0807,3.707,32.9833,0.8523c15.9033-2.8549,14.7253-9.4165,30.6286-12.2713
		c15.9024-2.8547,17.0804,3.7071,32.9829,0.8525c15.9022-2.8547,14.7244-9.4165,30.6265-12.2711
		c15.9003-2.8542,17.0783,3.7075,32.9786,0.8533l-0.5889-3.2809c5.3333-4.0583,10.1083-8.8083,15.5333-12.7334
		c12.625-7.9083,25.7-15.3416,39.85-20.1583c7.9-2.9417,15.9083-5.6417,24.1417-7.475c7.6417-2.0167,15.525-2.9667,23.0833-5.3167
		c22.3417-5.3584,44.9083-9.7,67.6083-13.2417c19.9333-3.7084,40.1917-5.6334,60.475-5.4667
		c9.0583-0.2416,18.1667,0.5417,27.1833-0.6499c4.325,0.3917,8.6667,0.5249,13.0083,0.7666c8.8667,0.5417,17.65,1.925,26.5,2.675
		c10.0167,0.9667,19.9667,2.4918,29.9084,4.05c16.5582,2.3333,32.7,6.8333,49.1166,9.9583
		c5.025,1.0083,10.1084,1.6583,15.1752,2.4666c15.6997,2.9083,31.5833,4.8584,47.0917,8.7584
		c10.2167,2.3083,20.3333,5.0751,30.1332,8.8084c0.425,0.1,1.275,0.2916,1.7,0.3916c11.2168,3.7667,21.825,9.125,32.625,13.925
		c2.2084,1.0167,4.3833,2.0917,6.5834,3.1334c14.7916,6.6833,29.75,13.0167,45.0999,18.325c1.7917,0.6083,3.5918,1.2167,5.4083,1.8
		c7.4834,2.2084,14.9668,4.4583,22.6168,6.0416c9.2749,1.9417,18.5416,4.175,28.0249,4.775
		c9.9583,1.6666,19.9166,3.6166,29.3418,7.3583c5.1249,1.7501,10.2499,3.4917,15.3999,5.1584
		c7.3417,2.5416,14.775,4.8167,22.3333,6.6166c9.1918,1.7666,18.4084,3.4333,27.625,5.125
		c8.8667,1.6416,17.8251,2.9751,26.4333,5.7667c11.3667-1.2917,20.725-8.425,30.7917-13.1833c4.3-3.075,8.8999-5.8833,12.4166-9.9
		c4.4501-5.0249,6.5833-11.575,10.7167-16.8167c6.2584-8.1,13.55-15.325,20.0583-23.2166
		c3.5917-4.4418,7.3083-9.0333,12.5083-11.675c12.3251-6.4167,23.6667-14.525,35-22.525c5.3417-3.7667,12.15-1.8666,17.8833-0.1833
		c8.3917,2.3167,16.9167,4.1667,25.3751,6.2333c7.2167,1.2833,15.2582,2.025,21.8833-1.7834
		c6.7333-3.7416,14.6166-3.9083,21.9833-5.525c11.5751-2.5167,23.0499-5.4666,34.4333-8.7667
		c5.75-1.6666,11.5834-3.1083,17.4833-4.1916C1693.6583,949.2667,1692.1749,949.0667,1690.7083,948.8333z"/>
	
		<linearGradient id="SVGID_8_" gradientUnits="userSpaceOnUse" x1="594.0029" y1="-10.7919" x2="532.5251" y2="474.4766" gradientTransform="matrix(0.8333 0 0 -0.8333 480 1333.3333)">
		<stop  offset="0" style="stop-color:#B47F78"/>
		<stop  offset="0.7405" style="stop-color:#5C5661"/>
		<stop  offset="0.8809" style="stop-color:#4B4E5C"/>
	</linearGradient>
	<path fill="url(#SVGID_8_)" stroke="#545360" stroke-width="0.5" d="M1408.2083,1055.1832
		c-9.2166-1.6917-18.4333-3.3583-27.625-5.125c-7.5582-1.7999-14.9916-4.0748-22.3333-6.6166
		c-5.15-1.6666-10.275-3.4083-15.4-5.1584c-9.425-3.7416-19.3833-5.6915-29.3417-7.3583c-9.4833-0.6-18.75-2.8334-28.0249-4.7749
		c-7.6501-1.5834-15.1335-3.8334-22.6167-6.0417c-1.8167-0.5833-3.6167-1.1917-5.4083-1.8
		c-15.35-5.3083-30.3082-11.6417-45.1-18.325c-2.2001-1.0416-4.375-2.1167-6.5834-3.1333c-10.8-4.8-21.4082-10.1583-32.6249-13.925
		c-0.425-0.1-1.275-0.2916-1.7001-0.3917c-9.7999-3.7333-19.9165-6.5-30.1332-8.8083c-15.5084-3.9-31.3918-5.85-47.0917-8.7584
		c-5.0668-0.8083-10.1501-1.4583-15.175-2.4666c-16.4167-3.125-32.5583-7.6251-49.1167-9.9583
		c-9.9417-1.5583-19.8917-3.0834-29.9084-4.0501c-8.8501-0.7499-17.6333-2.1332-26.4999-2.6749
		c-4.3417-0.2417-8.6833-0.375-13.0084-0.7666c-9.0167,1.1916-18.125,0.4083-27.1833,0.6499
		c-20.2834-0.1666-40.5417,1.7583-60.475,5.4667c-22.7,3.5416-45.2667,7.8833-67.6083,13.2416
		c-7.5582,2.35-15.4417,3.3-23.0833,5.3167c-8.2333,1.8333-16.2418,4.5333-24.1417,7.475
		c-14.15,4.8167-27.225,12.2499-39.85,20.1583c-5.425,3.925-10.2,8.675-15.5333,12.7333l0.5889,3.2809
		c-15.9003,2.8542-17.0782-3.7075-32.9786-0.8533c-15.9022,2.8546-14.7244,9.4164-30.6265,12.2711
		c-15.9025,2.8546-17.0804-3.7072-32.9829-0.8524c-15.9033,2.8547-14.7253,9.4165-30.6285,12.2712
		c-15.9028,2.8547-17.0807-3.707-32.9833-0.8523c-15.9049,2.8551-14.7271,9.4169-30.632,12.272
		c-15.7028,2.8188-17.0606-3.535-32.3987-0.9493v33.1454v51.2167v40.4417v28.275v28.575v39.2917v23.7167v53.225
		c5.5583-6.5583,12.65-11.5416,19.1667-17.0667c10.4083-8.2,20.8083-17.0084,33.45-21.55c7.375-2.8417,15.2667-4.1,23.1417-4.425
		c8.8666-0.4083,17.775-0.9583,26.6333-0.1499c5.7167-3.2167,11.4083-6.5167,17.325-9.35
		c7.875-5.3501,15.7667-10.675,23.2167-16.6084c13.3666-10.775,27.7-20.25,41.6917-30.1666c0.875-0.6333,1.75-1.2417,2.6334-1.8334
		c7.4667-4.5,15.4-8.15,23.1166-12.175c7.0084-3.775,14.375-6.7916,21.5333-10.25c5.1583-2.3916,9.6167-6.0416,14.7917-8.3916
		c6.5917-2.5333,13.825-2.2833,20.775-2.1333c11.95,0.7583,23.875,3.1583,35.8917,2.1c6.3-0.5667,11.875-3.8501,17.2083-6.9917
		c6.9083-4.1167,12.9-9.7167,20.2833-13.0333c3.8167-1.7167,7.6083-3.475,11.2167-5.5834c6.9166-4.1749,14.5416-7.2167,20.75-12.475
		c6.125-5.1832,14.6083-4.7417,22.1333-4.9583c20.0167,0.1333,40.025-0.775,60.0417-0.525c4.8167-0.1,9.7083,0.4583,14.475-0.4917
		c7.6667-2.15,13.6083-7.7833,19.0416-13.3334c5.925-6.1,12.9333-10.9583,19.7335-16c4.2249-2.6917,8.3749-5.5083,12.2416-8.6917
		c3.3083-2.5834,6.5334-5.5917,10.6832-6.7c9.3583-2.125,19.1584-0.1,28.475-2.4333c6.4667-1.5083,11.3833-6.675,17.9584-7.8666
		c3.1166-0.625,6.2916-0.8917,9.4333-1.3834c7.3917,0.3083,14.7832-0.0333,22.1666,0.0917
		c6.1915,0.025,11.075,4.3833,15.8916,7.7084c5.9417,4.825,11.7583,10.025,19.0082,12.85c5.4751,2.5416,11.4834,3.725,17.5,3.8833
		c8.1167,0.2083,16.3,0.5834,24.3667-0.6c10.45-1.5001,20.9333-2.7666,31.3251-4.6084c7.4498-1.5166,14.8501-3.3083,22.1917-5.2999
		c9.125-2.4917,18.5083-3.7334,27.7666-5.6c11.3417-2.2917,22.6832-4.5667,34.0417-6.7917
		c13.0249-2.4917,26.2832-3.4249,39.5249-3.6416c13.2833-0.3667,26.6499-0.9751,39.8749,0.7166
		c7.1501-12.1582,18.4834-21.0083,29.8168-29.0416c3.575-2.575,7.0917-5.2417,10.7416-7.7167
		c6.275-3.9999,12.6917-7.9333,19.7251-10.4833c4.375-1.625,9.0583-2.025,13.6582-2.6167
		C1426.0333,1058.1583,1417.075,1056.825,1408.2083,1055.1832z"/>
</g>
</svg>
